{
	"patcher" : 	{
		"fileversion" : 1,
		"appversion" : 		{
			"major" : 7,
			"minor" : 3,
			"revision" : 5,
			"architecture" : "x64",
			"modernui" : 1
		}
,
		"rect" : [ 42.0, 85.0, 1812.0, 929.0 ],
		"bglocked" : 0,
		"openinpresentation" : 1,
		"default_fontsize" : 12.0,
		"default_fontface" : 0,
		"default_fontname" : "Arial",
		"gridonopen" : 1,
		"gridsize" : [ 15.0, 15.0 ],
		"gridsnaponopen" : 1,
		"objectsnaponopen" : 1,
		"statusbarvisible" : 2,
		"toolbarvisible" : 1,
		"lefttoolbarpinned" : 0,
		"toptoolbarpinned" : 0,
		"righttoolbarpinned" : 0,
		"bottomtoolbarpinned" : 0,
		"toolbars_unpinned_last_save" : 0,
		"tallnewobj" : 0,
		"boxanimatetime" : 200,
		"enablehscroll" : 1,
		"enablevscroll" : 1,
		"devicewidth" : 0.0,
		"description" : "",
		"digest" : "",
		"tags" : "",
		"style" : "",
		"subpatcher_template" : "",
		"boxes" : [ 			{
				"box" : 				{
					"fontname" : "Lato",
					"fontsize" : 14.0,
					"id" : "obj-116",
					"maxclass" : "comment",
					"numinlets" : 1,
					"numoutlets" : 0,
					"patching_rect" : [ 40.0, 555.5, 1402.0, 23.0 ],
					"style" : "",
					"text" : "That's it! The rest of the routing process is automated. These objects are designed to integrate with the msdp.module.routing object to receive values and connects to the msdp.presetSaveLoad object to send out and store values"
				}

			}
, 			{
				"box" : 				{
					"id" : "obj-113",
					"linecount" : 4,
					"maxclass" : "comment",
					"numinlets" : 1,
					"numoutlets" : 0,
					"patching_rect" : [ 1057.76062, 464.5, 142.196289, 62.0 ],
					"style" : "",
					"text" : "4. Connect the left outlet of the UI object back to the left inlet of the msdp.param object."
				}

			}
, 			{
				"box" : 				{
					"format" : 6,
					"id" : "obj-114",
					"maxclass" : "flonum",
					"numinlets" : 1,
					"numoutlets" : 2,
					"outlettype" : [ "", "bang" ],
					"parameter_enable" : 0,
					"patching_rect" : [ 885.956909, 494.0, 50.0, 22.0 ],
					"style" : ""
				}

			}
, 			{
				"box" : 				{
					"fontname" : "Lato",
					"fontsize" : 14.0,
					"id" : "obj-115",
					"maxclass" : "newobj",
					"numinlets" : 2,
					"numoutlets" : 1,
					"outlettype" : [ "" ],
					"patching_rect" : [ 885.956909, 461.5, 166.0, 25.0 ],
					"style" : "",
					"text" : "msdp.param.line p16 100"
				}

			}
, 			{
				"box" : 				{
					"id" : "obj-112",
					"linecount" : 4,
					"maxclass" : "comment",
					"numinlets" : 1,
					"numoutlets" : 0,
					"patching_rect" : [ 726.76062, 461.5, 142.196289, 62.0 ],
					"style" : "",
					"text" : "3. Connect the left outlet of the msdp.param object to the left inlet of the UI object"
				}

			}
, 			{
				"box" : 				{
					"format" : 6,
					"id" : "obj-108",
					"maxclass" : "flonum",
					"numinlets" : 1,
					"numoutlets" : 2,
					"outlettype" : [ "", "bang" ],
					"parameter_enable" : 0,
					"patching_rect" : [ 554.956909, 491.0, 50.0, 22.0 ],
					"style" : ""
				}

			}
, 			{
				"box" : 				{
					"fontname" : "Lato",
					"fontsize" : 14.0,
					"id" : "obj-104",
					"maxclass" : "newobj",
					"numinlets" : 2,
					"numoutlets" : 1,
					"outlettype" : [ "" ],
					"patching_rect" : [ 554.956909, 458.5, 166.0, 25.0 ],
					"style" : "",
					"text" : "msdp.param.line p16 100"
				}

			}
, 			{
				"box" : 				{
					"id" : "obj-103",
					"linecount" : 7,
					"maxclass" : "comment",
					"numinlets" : 1,
					"numoutlets" : 0,
					"patching_rect" : [ 397.76062, 450.5, 160.0, 103.0 ],
					"style" : "",
					"text" : "2. create the appropriate msdp.param object and fill out the two arguments.\nREMEMBER TO SET THE SCRIPTING NAME AND MATCH IT TO THE 1ST ARGUMENT"
				}

			}
, 			{
				"box" : 				{
					"fontname" : "Lato",
					"fontsize" : 14.0,
					"id" : "obj-102",
					"maxclass" : "newobj",
					"numinlets" : 2,
					"numoutlets" : 1,
					"outlettype" : [ "" ],
					"patching_rect" : [ 229.76062, 477.5, 166.0, 25.0 ],
					"style" : "",
					"text" : "msdp.param.line p16 100"
				}

			}
, 			{
				"box" : 				{
					"id" : "obj-100",
					"maxclass" : "comment",
					"numinlets" : 1,
					"numoutlets" : 0,
					"patching_rect" : [ 97.0, 480.0, 128.0, 20.0 ],
					"style" : "",
					"text" : "1. take any UI object"
				}

			}
, 			{
				"box" : 				{
					"format" : 6,
					"id" : "obj-98",
					"maxclass" : "flonum",
					"numinlets" : 1,
					"numoutlets" : 2,
					"outlettype" : [ "", "bang" ],
					"parameter_enable" : 0,
					"patching_rect" : [ 40.0, 480.0, 50.0, 22.0 ],
					"style" : ""
				}

			}
, 			{
				"box" : 				{
					"fontname" : "Lato",
					"fontsize" : 14.0,
					"id" : "obj-95",
					"maxclass" : "comment",
					"numinlets" : 1,
					"numoutlets" : 0,
					"patching_rect" : [ 40.0, 425.923584, 270.0, 23.0 ],
					"style" : "",
					"text" : "SETUP INSTRUCTIONS - This is easy"
				}

			}
, 			{
				"box" : 				{
					"fontname" : "Lato",
					"fontsize" : 14.0,
					"id" : "obj-87",
					"linecount" : 7,
					"maxclass" : "comment",
					"numinlets" : 1,
					"numoutlets" : 0,
					"patching_rect" : [ 40.0, 286.0, 1377.0, 124.0 ],
					"style" : "",
					"text" : "There are five msdp.param objects (so far); three objects that serve unique purposes, and two variants that exist to help with module loading.\n1. msdp,param - this receives and sends any value through to the UI object\n2. msdp.param.defer - this works the same way, but the initial value will not be set until the rest of the module loads. This can help with order of events\n3. msdp.param.line - this receives a float, an int, or a pair of numbers, either [int int], [int float], [float int]. or [float float]. If you only send one vaue in, it will set the UI object to that value immediately. If you send it a pair of values, however, the UI object will ramp from the current value to the first value in the pair, over a duration in milliseconds set by the second number in the pair. See the included test for further explanation.\n4. msdp.param.line.defer - works like the param.line object, but defers the initial value set until the rest of the module has loaded.  THIS MUST BE USED FOR MSDP DIALS!\n5. msdp.param.textedit - this includes some additional functions to specifically required for the textedit object. Otherwise, it works identically to the msdp.param object "
				}

			}
, 			{
				"box" : 				{
					"fontname" : "Lato",
					"fontsize" : 14.0,
					"id" : "obj-86",
					"maxclass" : "newobj",
					"numinlets" : 2,
					"numoutlets" : 1,
					"outlettype" : [ "" ],
					"patching_rect" : [ 767.956909, 259.0, 253.0, 25.0 ],
					"style" : "",
					"text" : "msdp.param.textedit p15 \"Default Text\"",
					"varname" : "p15"
				}

			}
, 			{
				"box" : 				{
					"fontname" : "Lato",
					"fontsize" : 14.0,
					"id" : "obj-78",
					"maxclass" : "newobj",
					"numinlets" : 2,
					"numoutlets" : 1,
					"outlettype" : [ "" ],
					"patching_rect" : [ 554.956909, 259.0, 205.0, 25.0 ],
					"style" : "",
					"text" : "msdp.param.line.defer p14 1.05",
					"varname" : "p14"
				}

			}
, 			{
				"box" : 				{
					"fontname" : "Lato",
					"fontsize" : 14.0,
					"id" : "obj-65",
					"maxclass" : "newobj",
					"numinlets" : 2,
					"numoutlets" : 1,
					"outlettype" : [ "" ],
					"patching_rect" : [ 380.956909, 259.0, 166.0, 25.0 ],
					"style" : "",
					"text" : "msdp.param.line p13 100",
					"varname" : "p13"
				}

			}
, 			{
				"box" : 				{
					"fontname" : "Lato",
					"fontsize" : 14.0,
					"id" : "obj-64",
					"maxclass" : "newobj",
					"numinlets" : 2,
					"numoutlets" : 1,
					"outlettype" : [ "" ],
					"patching_rect" : [ 192.956909, 259.0, 181.0, 25.0 ],
					"style" : "",
					"text" : "msdp.param.defer p12 Wait",
					"varname" : "p12"
				}

			}
, 			{
				"box" : 				{
					"fontname" : "Lato",
					"fontsize" : 14.0,
					"id" : "obj-63",
					"maxclass" : "newobj",
					"numinlets" : 2,
					"numoutlets" : 1,
					"outlettype" : [ "" ],
					"patching_rect" : [ 40.0, 259.0, 150.0, 25.0 ],
					"style" : "",
					"text" : "msdp.param p11 Value",
					"varname" : "p11"
				}

			}
, 			{
				"box" : 				{
					"fontname" : "Lato",
					"fontsize" : 14.0,
					"id" : "obj-60",
					"linecount" : 4,
					"maxclass" : "comment",
					"numinlets" : 1,
					"numoutlets" : 0,
					"patching_rect" : [ 40.0, 177.0, 1377.0, 74.0 ],
					"style" : "",
					"text" : "All of the parameter objects contain 2 arguments, and both are required. \n1. The first argument is the parameter name. In this case, I've called this parameter \"p10\". *IT IS CRITICALLY IMPORTANT THAT YOU GIVE THIS OBJECT THE EACT SAME SCRIPTING NAME IN THE INSPECTOR. IF YOU'RE NOT SURE WHAT THIS MEANS, OPEN UP THE INSPECTOR AND NOTICE THAT THE SCRIPTING NAME FOR THIS OBJECT IS 'p10'.\n2. The second argument is the parameter's initial value."
				}

			}
, 			{
				"box" : 				{
					"fontname" : "Lato",
					"fontsize" : 14.0,
					"id" : "obj-59",
					"maxclass" : "newobj",
					"numinlets" : 2,
					"numoutlets" : 1,
					"outlettype" : [ "" ],
					"patching_rect" : [ 40.0, 145.0, 143.0, 25.0 ],
					"style" : "",
					"text" : "msdp.param p10 100",
					"varname" : "p10"
				}

			}
, 			{
				"box" : 				{
					"fontname" : "Lato",
					"fontsize" : 14.0,
					"id" : "obj-58",
					"maxclass" : "comment",
					"numinlets" : 1,
					"numoutlets" : 0,
					"patching_rect" : [ 40.0, 113.923584, 1273.0, 23.0 ],
					"style" : "",
					"text" : "Any User Interface object can easily be integrated into the MSDP I/O system using the msdp.param objects. There are a smattering of objects designed to easily integrate most UI objects seamlessly"
				}

			}
, 			{
				"box" : 				{
					"fontname" : "Lato",
					"fontsize" : 14.0,
					"id" : "obj-57",
					"linecount" : 5,
					"maxclass" : "comment",
					"numinlets" : 1,
					"numoutlets" : 0,
					"patching_rect" : [ 40.0, 15.923584, 652.0, 90.0 ],
					"style" : "",
					"text" : "MSDP has it's own Input/Output routing system that ensures everything will work and save properly. This system makes the following functions possible:\n1. Parameters properly save and re-load\n2. Presets properly save and re-load\n3. Parameters can be updated via controllers / scores / other modules"
				}

			}
, 			{
				"box" : 				{
					"id" : "obj-54",
					"maxclass" : "comment",
					"numinlets" : 1,
					"numoutlets" : 0,
					"patching_rect" : [ 1574.919312, 708.0, 230.0, 20.0 ],
					"style" : "",
					"text" : "You can replace text as weil if needed"
				}

			}
, 			{
				"box" : 				{
					"id" : "obj-53",
					"linecount" : 2,
					"maxclass" : "comment",
					"numinlets" : 1,
					"numoutlets" : 0,
					"patching_rect" : [ 1390.143799, 694.0, 168.478516, 34.0 ],
					"style" : "",
					"text" : "Ramp times work great with dials as well"
				}

			}
, 			{
				"box" : 				{
					"id" : "obj-52",
					"linecount" : 3,
					"maxclass" : "comment",
					"numinlets" : 1,
					"numoutlets" : 0,
					"patching_rect" : [ 1210.946167, 687.0, 168.478516, 48.0 ],
					"style" : "",
					"text" : "Ramp values by choosing a destination value and a ramp time in milliseconds"
				}

			}
, 			{
				"box" : 				{
					"id" : "obj-51",
					"maxclass" : "newobj",
					"numinlets" : 1,
					"numoutlets" : 1,
					"outlettype" : [ "" ],
					"patching_rect" : [ 946.748657, 765.755859, 59.0, 22.0 ],
					"style" : "",
					"text" : "tosymbol"
				}

			}
, 			{
				"box" : 				{
					"id" : "obj-50",
					"linecount" : 2,
					"maxclass" : "comment",
					"numinlets" : 1,
					"numoutlets" : 0,
					"patching_rect" : [ 833.748657, 701.0, 176.0, 34.0 ],
					"style" : "",
					"text" : "                Select Tab \nBy index         or by symbol"
				}

			}
, 			{
				"box" : 				{
					"id" : "obj-49",
					"maxclass" : "newobj",
					"numinlets" : 1,
					"numoutlets" : 1,
					"outlettype" : [ "" ],
					"patching_rect" : [ 946.748657, 795.12793, 96.0, 22.0 ],
					"style" : "",
					"text" : "prepend symbol"
				}

			}
, 			{
				"box" : 				{
					"bgcolor" : [ 0.095481, 0.100396, 0.100293, 1.0 ],
					"bgfillcolor_angle" : 270.0,
					"bgfillcolor_autogradient" : 0.0,
					"bgfillcolor_color" : [ 0.095481, 0.100396, 0.100293, 1.0 ],
					"bgfillcolor_color1" : [ 0.095481, 0.100396, 0.100293, 1.0 ],
					"bgfillcolor_color2" : [ 0.290196, 0.309804, 0.301961, 1.0 ],
					"bgfillcolor_proportion" : 0.39,
					"bgfillcolor_type" : "color",
					"fontname" : "Lato",
					"id" : "obj-48",
					"items" : [ "Z3R0", ",", 1, ",", "Two" ],
					"maxclass" : "umenu",
					"numinlets" : 1,
					"numoutlets" : 3,
					"outlettype" : [ "int", "", "" ],
					"parameter_enable" : 0,
					"patching_rect" : [ 906.248657, 735.0, 100.0, 23.0 ],
					"presentation" : 1,
					"presentation_rect" : [ 57.328125, 227.0, 100.0, 23.0 ],
					"style" : ""
				}

			}
, 			{
				"box" : 				{
					"id" : "obj-47",
					"maxclass" : "newobj",
					"numinlets" : 1,
					"numoutlets" : 1,
					"outlettype" : [ "" ],
					"patching_rect" : [ 1091.248657, 765.755859, 96.0, 22.0 ],
					"style" : "",
					"text" : "prepend symbol"
				}

			}
, 			{
				"box" : 				{
					"id" : "obj-46",
					"maxclass" : "newobj",
					"numinlets" : 1,
					"numoutlets" : 1,
					"outlettype" : [ "" ],
					"patching_rect" : [ 1091.248657, 794.0, 71.0, 22.0 ],
					"style" : "",
					"text" : "prepend p2"
				}

			}
, 			{
				"box" : 				{
					"bgcolor" : [ 0.095481, 0.100396, 0.100293, 1.0 ],
					"bgfillcolor_angle" : 270.0,
					"bgfillcolor_autogradient" : 0.0,
					"bgfillcolor_color" : [ 0.095481, 0.100396, 0.100293, 1.0 ],
					"bgfillcolor_color1" : [ 0.095481, 0.100396, 0.100293, 1.0 ],
					"bgfillcolor_color2" : [ 0.290196, 0.309804, 0.301961, 1.0 ],
					"bgfillcolor_proportion" : 0.39,
					"bgfillcolor_type" : "color",
					"fontname" : "Lato",
					"id" : "obj-45",
					"items" : [ "First", ",", "2nd", ",", "TH1RD" ],
					"maxclass" : "umenu",
					"numinlets" : 1,
					"numoutlets" : 3,
					"outlettype" : [ "int", "", "" ],
					"parameter_enable" : 0,
					"patching_rect" : [ 1091.248657, 735.0, 100.0, 23.0 ],
					"presentation" : 1,
					"presentation_rect" : [ 42.328125, 212.0, 100.0, 23.0 ],
					"style" : ""
				}

			}
, 			{
				"box" : 				{
					"id" : "obj-42",
					"linecount" : 2,
					"maxclass" : "comment",
					"numinlets" : 1,
					"numoutlets" : 0,
					"patching_rect" : [ 1023.248657, 701.0, 164.0, 34.0 ],
					"style" : "",
					"text" : "            Select Menu \nBy index         or by symbol"
				}

			}
, 			{
				"box" : 				{
					"id" : "obj-38",
					"maxclass" : "newobj",
					"numinlets" : 2,
					"numoutlets" : 1,
					"outlettype" : [ "" ],
					"patching_rect" : [ 1394.375366, 765.755859, 82.0, 22.0 ],
					"style" : "",
					"text" : "pack 0. 0."
				}

			}
, 			{
				"box" : 				{
					"id" : "obj-37",
					"maxclass" : "newobj",
					"numinlets" : 2,
					"numoutlets" : 1,
					"outlettype" : [ "" ],
					"patching_rect" : [ 1219.311523, 765.755859, 82.0, 22.0 ],
					"style" : "",
					"text" : "pack 0. 0."
				}

			}
, 			{
				"box" : 				{
					"bgcolor" : [ 0.095481, 0.100396, 0.100293, 1.0 ],
					"fontname" : "Roboto Mono",
					"format" : 6,
					"id" : "obj-34",
					"maxclass" : "flonum",
					"numinlets" : 1,
					"numoutlets" : 2,
					"outlettype" : [ "", "bang" ],
					"parameter_enable" : 0,
					"patching_rect" : [ 1457.375244, 735.0, 81.0, 24.0 ],
					"style" : ""
				}

			}
, 			{
				"box" : 				{
					"bgcolor" : [ 0.095481, 0.100396, 0.100293, 1.0 ],
					"fontname" : "Roboto Mono",
					"format" : 6,
					"id" : "obj-35",
					"maxclass" : "flonum",
					"numinlets" : 1,
					"numoutlets" : 2,
					"outlettype" : [ "", "bang" ],
					"parameter_enable" : 0,
					"patching_rect" : [ 1282.311523, 735.0, 81.0, 24.0 ],
					"style" : ""
				}

			}
, 			{
				"box" : 				{
					"id" : "obj-33",
					"maxclass" : "newobj",
					"numinlets" : 2,
					"numoutlets" : 2,
					"outlettype" : [ "", "" ],
					"patching_rect" : [ 1574.919312, 765.755859, 61.0, 22.0 ],
					"style" : "",
					"text" : "route text"
				}

			}
, 			{
				"box" : 				{
					"id" : "obj-31",
					"maxclass" : "newobj",
					"numinlets" : 1,
					"numoutlets" : 1,
					"outlettype" : [ "" ],
					"patching_rect" : [ 1164.614014, 904.755859, 73.0, 22.0 ],
					"style" : "",
					"text" : "pvar backIn"
				}

			}
, 			{
				"box" : 				{
					"id" : "obj-32",
					"maxclass" : "newobj",
					"numinlets" : 1,
					"numoutlets" : 1,
					"outlettype" : [ "" ],
					"patching_rect" : [ 1574.919312, 795.12793, 71.0, 22.0 ],
					"style" : "",
					"text" : "prepend p5"
				}

			}
, 			{
				"box" : 				{
					"bgcolor" : [ 0.095481, 0.100396, 0.100293, 1.0 ],
					"fontname" : "Lato",
					"fontsize" : 14.0,
					"id" : "obj-30",
					"keymode" : 1,
					"linecount" : 2,
					"maxclass" : "textedit",
					"numinlets" : 1,
					"numoutlets" : 4,
					"outlettype" : [ "", "int", "", "" ],
					"parameter_enable" : 0,
					"patching_rect" : [ 1574.919312, 735.0, 230.0, 25.5 ],
					"presentation" : 1,
					"presentation_linecount" : 2,
					"presentation_rect" : [ 42.328125, 497.387054, 254.0, 25.5 ],
					"style" : "",
					"text" : "Update the text by typing something here"
				}

			}
, 			{
				"box" : 				{
					"id" : "obj-26",
					"maxclass" : "newobj",
					"numinlets" : 1,
					"numoutlets" : 1,
					"outlettype" : [ "" ],
					"patching_rect" : [ 1394.375366, 795.12793, 71.0, 22.0 ],
					"style" : "",
					"text" : "prepend p4"
				}

			}
, 			{
				"box" : 				{
					"bgcolor" : [ 0.095481, 0.100396, 0.100293, 1.0 ],
					"fontname" : "Roboto Mono",
					"format" : 6,
					"id" : "obj-27",
					"maxclass" : "flonum",
					"numinlets" : 1,
					"numoutlets" : 2,
					"outlettype" : [ "", "bang" ],
					"parameter_enable" : 0,
					"patching_rect" : [ 1394.375366, 735.0, 58.0, 24.0 ],
					"style" : ""
				}

			}
, 			{
				"box" : 				{
					"id" : "obj-23",
					"maxclass" : "newobj",
					"numinlets" : 1,
					"numoutlets" : 1,
					"outlettype" : [ "" ],
					"patching_rect" : [ 1219.311523, 794.0, 71.0, 22.0 ],
					"style" : "",
					"text" : "prepend p3"
				}

			}
, 			{
				"box" : 				{
					"bgcolor" : [ 0.095481, 0.100396, 0.100293, 1.0 ],
					"fontname" : "Roboto Mono",
					"format" : 6,
					"id" : "obj-24",
					"maxclass" : "flonum",
					"numinlets" : 1,
					"numoutlets" : 2,
					"outlettype" : [ "", "bang" ],
					"parameter_enable" : 0,
					"patching_rect" : [ 1219.311523, 735.0, 58.0, 24.0 ],
					"style" : ""
				}

			}
, 			{
				"box" : 				{
					"bgcolor" : [ 0.095481, 0.100396, 0.100293, 1.0 ],
					"fontname" : "Roboto Mono",
					"id" : "obj-21",
					"maxclass" : "number",
					"maximum" : 2,
					"minimum" : 0,
					"numinlets" : 1,
					"numoutlets" : 2,
					"outlettype" : [ "", "bang" ],
					"parameter_enable" : 0,
					"patching_rect" : [ 1024.306763, 735.0, 53.0, 24.0 ],
					"style" : ""
				}

			}
, 			{
				"box" : 				{
					"id" : "obj-17",
					"maxclass" : "newobj",
					"numinlets" : 1,
					"numoutlets" : 1,
					"outlettype" : [ "" ],
					"patching_rect" : [ 946.748657, 823.37207, 71.0, 22.0 ],
					"style" : "",
					"text" : "prepend p1"
				}

			}
, 			{
				"box" : 				{
					"bgcolor" : [ 0.095481, 0.100396, 0.100293, 1.0 ],
					"fontname" : "Roboto Mono",
					"id" : "obj-16",
					"maxclass" : "number",
					"maximum" : 2,
					"minimum" : 0,
					"numinlets" : 1,
					"numoutlets" : 2,
					"outlettype" : [ "", "bang" ],
					"parameter_enable" : 0,
					"patching_rect" : [ 847.248657, 735.0, 53.0, 24.0 ],
					"style" : ""
				}

			}
, 			{
				"box" : 				{
					"id" : "obj-12",
					"linecount" : 3,
					"maxclass" : "comment",
					"numinlets" : 1,
					"numoutlets" : 0,
					"patching_rect" : [ 411.0, 1079.0, 152.0, 48.0 ],
					"presentation" : 1,
					"presentation_rect" : [ 284.72937, 483.137054, 335.0, 20.0 ],
					"style" : "",
					"text" : "Textedit is a special type of parameter so it gets its own tool"
				}

			}
, 			{
				"box" : 				{
					"id" : "obj-5",
					"linecount" : 3,
					"maxclass" : "comment",
					"numinlets" : 1,
					"numoutlets" : 0,
					"patching_rect" : [ 143.26062, 976.0, 152.0, 48.0 ],
					"presentation" : 1,
					"presentation_rect" : [ 93.72937, 365.5, 304.0, 20.0 ],
					"style" : "",
					"text" : "A parameter with gliding values that needs to load later"
				}

			}
, 			{
				"box" : 				{
					"id" : "obj-1",
					"linecount" : 2,
					"maxclass" : "comment",
					"numinlets" : 1,
					"numoutlets" : 0,
					"patching_rect" : [ 136.0, 884.423584, 152.0, 34.0 ],
					"presentation" : 1,
					"presentation_rect" : [ 88.328125, 271.5, 230.0, 20.0 ],
					"style" : "",
					"text" : "A parameter with values that can 'glide'"
				}

			}
, 			{
				"box" : 				{
					"id" : "obj-11",
					"linecount" : 3,
					"maxclass" : "comment",
					"numinlets" : 1,
					"numoutlets" : 0,
					"patching_rect" : [ 236.76062, 796.0, 152.0, 48.0 ],
					"presentation" : 1,
					"presentation_rect" : [ 134.0, 196.5, 377.0, 20.0 ],
					"style" : "",
					"text" : "A Parameter who's default needs to load AFTER other parameters"
				}

			}
, 			{
				"box" : 				{
					"id" : "obj-7",
					"maxclass" : "comment",
					"numinlets" : 1,
					"numoutlets" : 0,
					"patching_rect" : [ 55.0, 643.0, 150.0, 20.0 ],
					"presentation" : 1,
					"presentation_rect" : [ 291.0, 119.707031, 150.0, 20.0 ],
					"style" : "",
					"text" : "A Simple Parameter"
				}

			}
, 			{
				"box" : 				{
					"bgcolor" : [ 0.095481, 0.100396, 0.100293, 1.0 ],
					"bgfillcolor_angle" : 270.0,
					"bgfillcolor_autogradient" : 0.0,
					"bgfillcolor_color" : [ 0.095481, 0.100396, 0.100293, 1.0 ],
					"bgfillcolor_color1" : [ 0.095481, 0.100396, 0.100293, 1.0 ],
					"bgfillcolor_color2" : [ 0.290196, 0.309804, 0.301961, 1.0 ],
					"bgfillcolor_proportion" : 0.39,
					"bgfillcolor_type" : "color",
					"fontname" : "Lato",
					"id" : "obj-3",
					"items" : [ "First", ",", "2nd", ",", "TH1RD" ],
					"maxclass" : "umenu",
					"numinlets" : 1,
					"numoutlets" : 3,
					"outlettype" : [ "int", "", "" ],
					"parameter_enable" : 0,
					"patching_rect" : [ 55.0, 804.12793, 100.0, 23.0 ],
					"presentation" : 1,
					"presentation_rect" : [ 27.328125, 197.0, 100.0, 23.0 ],
					"style" : ""
				}

			}
, 			{
				"box" : 				{
					"bgcolor" : [ 0.095481, 0.100396, 0.100293, 1.0 ],
					"fontname" : "Lato",
					"fontsize" : 14.0,
					"id" : "obj-14",
					"keymode" : 1,
					"linecount" : 2,
					"maxclass" : "textedit",
					"numinlets" : 1,
					"numoutlets" : 4,
					"outlettype" : [ "", "int", "", "" ],
					"parameter_enable" : 0,
					"patching_rect" : [ 49.76062, 1104.0, 230.0, 25.5 ],
					"presentation" : 1,
					"presentation_linecount" : 2,
					"presentation_rect" : [ 27.328125, 482.387054, 254.0, 25.5 ],
					"style" : "",
					"text" : "Update the text by typing something here"
				}

			}
, 			{
				"box" : 				{
					"bgcolor" : [ 0.095481, 0.100396, 0.100293, 1.0 ],
					"fontname" : "Roboto Mono",
					"fontsize" : 14.0,
					"format" : 6,
					"id" : "obj-13",
					"maxclass" : "flonum",
					"numinlets" : 1,
					"numoutlets" : 2,
					"outlettype" : [ "", "bang" ],
					"parameter_enable" : 0,
					"patching_rect" : [ 55.0, 884.423584, 59.0, 27.0 ],
					"presentation" : 1,
					"presentation_rect" : [ 27.328125, 268.0, 59.0, 27.0 ],
					"style" : "",
					"textcolor" : [ 1.0, 1.0, 1.0, 1.0 ]
				}

			}
, 			{
				"box" : 				{
					"bgcolor" : [ 0.163647, 0.174699, 0.17409, 0.0 ],
					"htabcolor" : [ 0.435294, 0.835294, 0.811765, 1.0 ],
					"id" : "obj-2",
					"margin" : 0,
					"maxclass" : "tab",
					"numinlets" : 1,
					"numoutlets" : 3,
					"outlettype" : [ "int", "", "" ],
					"parameter_enable" : 0,
					"patching_rect" : [ 55.0, 697.0, 204.0, 36.0 ],
					"presentation" : 1,
					"presentation_rect" : [ 27.328125, 117.148438, 253.09375, 25.117188 ],
					"rounded" : 0.0,
					"segmented" : 1,
					"style" : "",
					"tabcolor" : [ 0.095481, 0.100396, 0.100293, 1.0 ],
					"tabs" : [ "Z3R0", "1", "Two" ],
					"textcolor" : [ 0.435294, 0.835294, 0.811765, 1.0 ],
					"varname" : "grain_tabs"
				}

			}
, 			{
				"box" : 				{
					"id" : "obj-10",
					"maxclass" : "newobj",
					"numinlets" : 2,
					"numoutlets" : 1,
					"outlettype" : [ "" ],
					"patching_rect" : [ 49.76062, 1079.0, 339.0, 22.0 ],
					"presentation" : 1,
					"presentation_rect" : [ 27.328125, 456.0, 339.0, 22.0 ],
					"style" : "",
					"text" : "msdp.param.textedit p5 \"This is a text specific parameter tool\"",
					"varname" : "p5"
				}

			}
, 			{
				"box" : 				{
					"id" : "obj-9",
					"maxclass" : "newobj",
					"numinlets" : 2,
					"numoutlets" : 1,
					"outlettype" : [ "" ],
					"patching_rect" : [ 55.0, 774.755859, 135.0, 22.0 ],
					"presentation" : 1,
					"presentation_rect" : [ 27.328125, 168.755829, 157.0, 22.0 ],
					"style" : "",
					"text" : "msdp.param.defer p2 2",
					"varname" : "p2"
				}

			}
, 			{
				"box" : 				{
					"id" : "obj-8",
					"maxclass" : "newobj",
					"numinlets" : 2,
					"numoutlets" : 1,
					"outlettype" : [ "" ],
					"patching_rect" : [ 55.0, 859.423584, 139.0, 22.0 ],
					"presentation" : 1,
					"presentation_rect" : [ 27.328125, 244.0, 139.0, 22.0 ],
					"style" : "",
					"text" : "msdp.param.line p3 127",
					"varname" : "p3"
				}

			}
, 			{
				"box" : 				{
					"id" : "obj-6",
					"maxclass" : "newobj",
					"numinlets" : 2,
					"numoutlets" : 1,
					"outlettype" : [ "" ],
					"patching_rect" : [ 55.0, 672.0, 104.0, 22.0 ],
					"presentation" : 1,
					"presentation_rect" : [ 27.328125, 90.0, 104.0, 22.0 ],
					"style" : "",
					"text" : "msdp.param p1 1",
					"varname" : "p1"
				}

			}
, 			{
				"box" : 				{
					"id" : "obj-4",
					"linecount" : 2,
					"maxclass" : "comment",
					"numinlets" : 1,
					"numoutlets" : 0,
					"patching_rect" : [ 1424.174683, 6.551498, 372.489258, 34.0 ],
					"presentation" : 1,
					"presentation_linecount" : 3,
					"presentation_rect" : [ 61.0, 34.148438, 201.75, 48.0 ],
					"style" : "",
					"text" : "Not much to look at in presentation mode. Switch to patching mode to learn more"
				}

			}
, 			{
				"box" : 				{
					"id" : "obj-96",
					"maxclass" : "comment",
					"numinlets" : 1,
					"numoutlets" : 0,
					"patching_rect" : [ 992.727783, 649.423584, 637.0, 20.0 ],
					"style" : "",
					"text" : "Test the parameters with this code. Or copy it into another patch and send to a module with the tutorial loaded into it"
				}

			}
, 			{
				"box" : 				{
					"comment" : "",
					"id" : "obj-66",
					"index" : 0,
					"maxclass" : "outlet",
					"numinlets" : 1,
					"numoutlets" : 0,
					"patching_rect" : [ 1254.819458, 1076.0, 25.0, 25.0 ],
					"style" : ""
				}

			}
, 			{
				"box" : 				{
					"id" : "obj-67",
					"maxclass" : "newobj",
					"numinlets" : 1,
					"numoutlets" : 1,
					"outlettype" : [ "" ],
					"patcher" : 					{
						"fileversion" : 1,
						"appversion" : 						{
							"major" : 7,
							"minor" : 3,
							"revision" : 5,
							"architecture" : "x64",
							"modernui" : 1
						}
,
						"rect" : [ 1150.0, 240.0, 618.0, 480.0 ],
						"bglocked" : 0,
						"openinpresentation" : 0,
						"default_fontsize" : 12.0,
						"default_fontface" : 0,
						"default_fontname" : "Arial",
						"gridonopen" : 1,
						"gridsize" : [ 15.0, 15.0 ],
						"gridsnaponopen" : 1,
						"objectsnaponopen" : 1,
						"statusbarvisible" : 2,
						"toolbarvisible" : 1,
						"lefttoolbarpinned" : 0,
						"toptoolbarpinned" : 0,
						"righttoolbarpinned" : 0,
						"bottomtoolbarpinned" : 0,
						"toolbars_unpinned_last_save" : 0,
						"tallnewobj" : 0,
						"boxanimatetime" : 200,
						"enablehscroll" : 1,
						"enablevscroll" : 1,
						"devicewidth" : 0.0,
						"description" : "",
						"digest" : "",
						"tags" : "",
						"style" : "",
						"subpatcher_template" : "",
						"boxes" : [ 							{
								"box" : 								{
									"id" : "obj-2",
									"maxclass" : "newobj",
									"numinlets" : 1,
									"numoutlets" : 1,
									"outlettype" : [ "" ],
									"patching_rect" : [ 307.0, 230.0, 85.0, 22.0 ],
									"style" : "",
									"text" : "prepend ramp"
								}

							}
, 							{
								"box" : 								{
									"id" : "obj-3",
									"maxclass" : "comment",
									"numinlets" : 1,
									"numoutlets" : 0,
									"patching_rect" : [ 373.5, 95.0, 137.5, 20.0 ],
									"style" : "",
									"text" : "Rample Parameters"
								}

							}
, 							{
								"box" : 								{
									"id" : "obj-4",
									"linecount" : 2,
									"maxclass" : "comment",
									"numinlets" : 1,
									"numoutlets" : 0,
									"patching_rect" : [ 454.0, 149.0, 130.0, 34.0 ],
									"style" : "",
									"text" : "Set Rampable List Here  with no commas"
								}

							}
, 							{
								"box" : 								{
									"id" : "obj-5",
									"maxclass" : "newobj",
									"numinlets" : 1,
									"numoutlets" : 2,
									"outlettype" : [ "bang", "zlclear" ],
									"patching_rect" : [ 313.0, 95.0, 62.0, 22.0 ],
									"style" : "",
									"text" : "t b zlclear",
									"varname" : "prioritySet[1]"
								}

							}
, 							{
								"box" : 								{
									"id" : "obj-6",
									"maxclass" : "message",
									"numinlets" : 2,
									"numoutlets" : 1,
									"outlettype" : [ "" ],
									"patching_rect" : [ 313.0, 154.0, 41.0, 22.0 ],
									"style" : "",
									"text" : "p3 p5"
								}

							}
, 							{
								"box" : 								{
									"id" : "obj-1",
									"maxclass" : "newobj",
									"numinlets" : 1,
									"numoutlets" : 1,
									"outlettype" : [ "" ],
									"patching_rect" : [ 44.0, 235.0, 94.0, 22.0 ],
									"style" : "",
									"text" : "prepend priority"
								}

							}
, 							{
								"box" : 								{
									"id" : "obj-39",
									"maxclass" : "comment",
									"numinlets" : 1,
									"numoutlets" : 0,
									"patching_rect" : [ 110.5, 100.0, 143.0, 20.0 ],
									"style" : "",
									"text" : "High Priority Parameters"
								}

							}
, 							{
								"box" : 								{
									"id" : "obj-24",
									"linecount" : 4,
									"maxclass" : "comment",
									"numinlets" : 1,
									"numoutlets" : 0,
									"patching_rect" : [ 146.0, 159.0, 102.0, 62.0 ],
									"style" : "",
									"text" : "Set Priorities Here from first to last with no commas"
								}

							}
, 							{
								"box" : 								{
									"id" : "obj-15",
									"maxclass" : "newobj",
									"numinlets" : 1,
									"numoutlets" : 2,
									"outlettype" : [ "bang", "zlclear" ],
									"patching_rect" : [ 50.0, 100.0, 62.0, 22.0 ],
									"style" : "",
									"text" : "t b zlclear",
									"varname" : "prioritySet"
								}

							}
, 							{
								"box" : 								{
									"id" : "obj-33",
									"maxclass" : "message",
									"numinlets" : 2,
									"numoutlets" : 1,
									"outlettype" : [ "" ],
									"patching_rect" : [ 50.0, 159.0, 29.5, 22.0 ],
									"style" : "",
									"text" : "p2"
								}

							}
, 							{
								"box" : 								{
									"comment" : "",
									"id" : "obj-16",
									"index" : 1,
									"maxclass" : "inlet",
									"numinlets" : 0,
									"numoutlets" : 1,
									"outlettype" : [ "bang" ],
									"patching_rect" : [ 50.0, 40.0, 30.0, 30.0 ],
									"style" : ""
								}

							}
, 							{
								"box" : 								{
									"comment" : "",
									"id" : "obj-35",
									"index" : 1,
									"maxclass" : "outlet",
									"numinlets" : 1,
									"numoutlets" : 0,
									"patching_rect" : [ 44.0, 276.0, 30.0, 30.0 ],
									"style" : ""
								}

							}
 ],
						"lines" : [ 							{
								"patchline" : 								{
									"destination" : [ "obj-35", 0 ],
									"source" : [ "obj-1", 0 ]
								}

							}
, 							{
								"patchline" : 								{
									"destination" : [ "obj-1", 0 ],
									"source" : [ "obj-15", 1 ]
								}

							}
, 							{
								"patchline" : 								{
									"destination" : [ "obj-33", 0 ],
									"source" : [ "obj-15", 0 ]
								}

							}
, 							{
								"patchline" : 								{
									"destination" : [ "obj-15", 0 ],
									"order" : 1,
									"source" : [ "obj-16", 0 ]
								}

							}
, 							{
								"patchline" : 								{
									"destination" : [ "obj-5", 0 ],
									"order" : 0,
									"source" : [ "obj-16", 0 ]
								}

							}
, 							{
								"patchline" : 								{
									"destination" : [ "obj-35", 0 ],
									"source" : [ "obj-2", 0 ]
								}

							}
, 							{
								"patchline" : 								{
									"destination" : [ "obj-1", 0 ],
									"source" : [ "obj-33", 0 ]
								}

							}
, 							{
								"patchline" : 								{
									"destination" : [ "obj-2", 0 ],
									"source" : [ "obj-5", 1 ]
								}

							}
, 							{
								"patchline" : 								{
									"destination" : [ "obj-6", 0 ],
									"source" : [ "obj-5", 0 ]
								}

							}
, 							{
								"patchline" : 								{
									"destination" : [ "obj-2", 0 ],
									"source" : [ "obj-6", 0 ]
								}

							}
 ]
					}
,
					"patching_rect" : [ 1474.588745, 1076.0, 98.0, 22.0 ],
					"saved_object_attributes" : 					{
						"description" : "",
						"digest" : "",
						"globalpatchername" : "",
						"style" : "",
						"tags" : ""
					}
,
					"style" : "",
					"text" : "p param_options"
				}

			}
, 			{
				"box" : 				{
					"id" : "obj-82",
					"maxclass" : "newobj",
					"numinlets" : 1,
					"numoutlets" : 1,
					"outlettype" : [ "" ],
					"patching_rect" : [ 1727.672485, 1038.5, 90.0, 22.0 ],
					"style" : "",
					"text" : "pvar namerBox"
				}

			}
, 			{
				"box" : 				{
					"id" : "obj-81",
					"maxclass" : "comment",
					"numinlets" : 1,
					"numoutlets" : 0,
					"patching_rect" : [ 773.76062, 993.923401, 71.0, 20.0 ],
					"style" : "",
					"text" : "namerBox"
				}

			}
, 			{
				"box" : 				{
					"id" : "obj-105",
					"maxclass" : "newobj",
					"numinlets" : 1,
					"numoutlets" : 1,
					"outlettype" : [ "" ],
					"patching_rect" : [ 782.456909, 1012.782532, 21.0, 22.0 ],
					"style" : "",
					"text" : "t l",
					"varname" : "namerBox"
				}

			}
, 			{
				"box" : 				{
					"id" : "obj-106",
					"maxclass" : "comment",
					"numinlets" : 1,
					"numoutlets" : 0,
					"patching_rect" : [ 975.963623, 994.0, 49.0, 20.0 ],
					"style" : "",
					"text" : "metaIn"
				}

			}
, 			{
				"box" : 				{
					"id" : "obj-107",
					"maxclass" : "newobj",
					"numinlets" : 1,
					"numoutlets" : 1,
					"outlettype" : [ "" ],
					"patching_rect" : [ 981.63031, 1017.0, 20.0, 22.0 ],
					"style" : "",
					"text" : "t l",
					"varname" : "metaIn"
				}

			}
, 			{
				"box" : 				{
					"id" : "obj-68",
					"maxclass" : "newobj",
					"numinlets" : 1,
					"numoutlets" : 1,
					"outlettype" : [ "" ],
					"patching_rect" : [ 1235.436035, 1046.0, 101.0, 22.0 ],
					"style" : "",
					"text" : "pvar priorityBang"
				}

			}
, 			{
				"box" : 				{
					"id" : "obj-69",
					"maxclass" : "comment",
					"numinlets" : 1,
					"numoutlets" : 0,
					"patching_rect" : [ 1214.446167, 994.0, 41.5, 20.0 ],
					"style" : "",
					"text" : "save",
					"textjustification" : 2
				}

			}
, 			{
				"box" : 				{
					"id" : "obj-109",
					"maxclass" : "newobj",
					"numinlets" : 1,
					"numoutlets" : 2,
					"outlettype" : [ "", "bang" ],
					"patching_rect" : [ 1210.946167, 1017.0, 40.5, 22.0 ],
					"style" : "",
					"text" : "t l b",
					"varname" : "save"
				}

			}
, 			{
				"box" : 				{
					"id" : "obj-43",
					"maxclass" : "comment",
					"numinlets" : 1,
					"numoutlets" : 0,
					"patching_rect" : [ 1049.295288, 994.0, 66.5, 20.0 ],
					"style" : "",
					"text" : "priorityList"
				}

			}
, 			{
				"box" : 				{
					"id" : "obj-74",
					"maxclass" : "newobj",
					"numinlets" : 1,
					"numoutlets" : 1,
					"outlettype" : [ "" ],
					"patching_rect" : [ 1055.545288, 1017.0, 20.0, 22.0 ],
					"style" : "",
					"text" : "t l",
					"varname" : "priorityList"
				}

			}
, 			{
				"box" : 				{
					"id" : "obj-84",
					"maxclass" : "newobj",
					"numinlets" : 5,
					"numoutlets" : 2,
					"outlettype" : [ "", "" ],
					"patching_rect" : [ 904.880371, 1046.0, 324.0, 22.0 ],
					"style" : "",
					"text" : "msdp_presetSaveLoad"
				}

			}
, 			{
				"box" : 				{
					"id" : "obj-93",
					"maxclass" : "comment",
					"numinlets" : 1,
					"numoutlets" : 0,
					"patching_rect" : [ 904.880371, 994.0, 50.5, 20.0 ],
					"style" : "",
					"text" : "pSave"
				}

			}
, 			{
				"box" : 				{
					"id" : "obj-110",
					"maxclass" : "newobj",
					"numinlets" : 1,
					"numoutlets" : 1,
					"outlettype" : [ "" ],
					"patching_rect" : [ 904.880371, 1017.0, 20.0, 22.0 ],
					"style" : "",
					"text" : "t l",
					"varname" : "pSave"
				}

			}
, 			{
				"box" : 				{
					"fontface" : 1,
					"fontname" : "Lato Regular",
					"id" : "obj-70",
					"maxclass" : "comment",
					"numinlets" : 1,
					"numoutlets" : 0,
					"patching_rect" : [ 1060.795288, 942.0, 282.150757, 21.0 ],
					"style" : "",
					"text" : "Gather, Save, and Recall Parameters into Preset Files",
					"textjustification" : 2
				}

			}
, 			{
				"box" : 				{
					"id" : "obj-71",
					"maxclass" : "comment",
					"numinlets" : 1,
					"numoutlets" : 0,
					"patching_rect" : [ 1125.34375, 994.0, 97.0, 20.0 ],
					"style" : "",
					"text" : "presetSaveLoad"
				}

			}
, 			{
				"box" : 				{
					"id" : "obj-111",
					"maxclass" : "newobj",
					"numinlets" : 1,
					"numoutlets" : 2,
					"outlettype" : [ "", "bang" ],
					"patching_rect" : [ 1134.84375, 1017.0, 30.0, 22.0 ],
					"style" : "",
					"text" : "t l b",
					"varname" : "presetSaveLoad"
				}

			}
, 			{
				"box" : 				{
					"id" : "obj-72",
					"maxclass" : "newobj",
					"numinlets" : 1,
					"numoutlets" : 1,
					"outlettype" : [ "" ],
					"patching_rect" : [ 904.880371, 1078.0, 73.0, 22.0 ],
					"style" : "",
					"text" : "pvar backIn"
				}

			}
, 			{
				"box" : 				{
					"id" : "obj-188",
					"maxclass" : "comment",
					"numinlets" : 1,
					"numoutlets" : 0,
					"patching_rect" : [ 1131.069458, 1076.0, 85.548523, 20.0 ],
					"style" : "",
					"text" : "second outlet"
				}

			}
, 			{
				"box" : 				{
					"comment" : "",
					"id" : "obj-191",
					"index" : 0,
					"maxclass" : "outlet",
					"numinlets" : 1,
					"numoutlets" : 0,
					"patching_rect" : [ 1210.819458, 1076.0, 25.0, 25.0 ],
					"style" : ""
				}

			}
, 			{
				"box" : 				{
					"bgcolor" : [ 0.095481, 0.100396, 0.100293, 1.0 ],
					"fontsize" : 10.0,
					"id" : "obj-73",
					"maxclass" : "textbutton",
					"mode" : 1,
					"numinlets" : 1,
					"numoutlets" : 3,
					"outlettype" : [ "", "", "int" ],
					"parameter_enable" : 0,
					"patching_rect" : [ 782.456909, 970.403198, 74.227295, 20.0 ],
					"presentation" : 1,
					"presentation_rect" : [ 271.5, 3.148438, 36.5625, 29.0 ],
					"style" : "",
					"text" : "MIRA OFF",
					"texton" : "MIRA ON",
					"textovercolor" : [ 0.43493, 0.833787, 0.812069, 1.0 ],
					"truncate" : 0,
					"usetextovercolor" : 1
				}

			}
, 			{
				"box" : 				{
					"comment" : "",
					"id" : "obj-76",
					"index" : 0,
					"maxclass" : "outlet",
					"numinlets" : 1,
					"numoutlets" : 0,
					"patching_rect" : [ 824.76062, 1086.0, 25.0, 25.0 ],
					"style" : ""
				}

			}
, 			{
				"box" : 				{
					"fontname" : "Arial",
					"fontsize" : 12.0,
					"id" : "obj-77",
					"linecount" : 2,
					"maxclass" : "newobj",
					"numinlets" : 2,
					"numoutlets" : 3,
					"outlettype" : [ "", "", "" ],
					"patching_rect" : [ 780.76062, 1042.034424, 85.0, 36.0 ],
					"style" : "",
					"text" : "msdp_namer_and_mira"
				}

			}
, 			{
				"box" : 				{
					"fontname" : "Arial",
					"fontsize" : 12.0,
					"id" : "obj-79",
					"maxclass" : "newobj",
					"numinlets" : 1,
					"numoutlets" : 1,
					"outlettype" : [ "" ],
					"patching_rect" : [ 782.456909, 945.896851, 72.0, 22.0 ],
					"style" : "",
					"text" : "loadmess 0"
				}

			}
, 			{
				"box" : 				{
					"fontname" : "Arial",
					"fontsize" : 12.0,
					"id" : "obj-89",
					"maxclass" : "newobj",
					"numinlets" : 1,
					"numoutlets" : 2,
					"outlettype" : [ "", "" ],
					"patching_rect" : [ 802.76062, 1118.0, 69.0, 22.0 ],
					"save" : [ "#N", "thispatcher", ";", "#Q", "end", ";" ],
					"style" : "",
					"text" : "thispatcher"
				}

			}
, 			{
				"box" : 				{
					"fontface" : 1,
					"fontname" : "Lato Regular",
					"id" : "obj-153",
					"maxclass" : "comment",
					"numinlets" : 1,
					"numoutlets" : 0,
					"patching_rect" : [ 1352.338745, 942.0, 227.0, 21.0 ],
					"style" : "",
					"text" : "Optional Meta Build and Priority Set Code",
					"textjustification" : 2
				}

			}
, 			{
				"box" : 				{
					"fontface" : 1,
					"fontname" : "Lato Regular",
					"id" : "obj-154",
					"maxclass" : "comment",
					"numinlets" : 1,
					"numoutlets" : 0,
					"patching_rect" : [ 1660.858521, 942.0, 158.313965, 21.0 ],
					"style" : "",
					"text" : "Select / Save / Open Presets",
					"textjustification" : 2
				}

			}
, 			{
				"box" : 				{
					"bgmode" : 0,
					"border" : 0,
					"clickthrough" : 0,
					"enablehscroll" : 0,
					"enablevscroll" : 0,
					"id" : "obj-155",
					"lockeddragscroll" : 0,
					"maxclass" : "bpatcher",
					"name" : "MSDP_Global_Preset_Manager.maxpat",
					"numinlets" : 1,
					"numoutlets" : 2,
					"offset" : [ 0.0, 0.0 ],
					"outlettype" : [ "", "" ],
					"patching_rect" : [ 1592.422485, 987.5, 158.5, 33.0 ],
					"presentation" : 1,
					"presentation_rect" : [ 57.03125, 3.148438, 212.46875, 29.0 ],
					"viewvisibility" : 1
				}

			}
, 			{
				"box" : 				{
					"id" : "obj-156",
					"maxclass" : "newobj",
					"numinlets" : 1,
					"numoutlets" : 1,
					"outlettype" : [ "" ],
					"patching_rect" : [ 1357.588745, 1096.0, 74.0, 22.0 ],
					"style" : "",
					"text" : "pvar metaIn"
				}

			}
, 			{
				"box" : 				{
					"id" : "obj-157",
					"maxclass" : "comment",
					"numinlets" : 1,
					"numoutlets" : 0,
					"patching_rect" : [ 1500.588745, 1046.0, 81.0, 20.0 ],
					"style" : "",
					"text" : "priorityBang"
				}

			}
, 			{
				"box" : 				{
					"id" : "obj-158",
					"maxclass" : "newobj",
					"numinlets" : 1,
					"numoutlets" : 1,
					"outlettype" : [ "bang" ],
					"patching_rect" : [ 1474.588745, 1046.0, 24.0, 22.0 ],
					"style" : "",
					"text" : "t b",
					"varname" : "priorityBang"
				}

			}
, 			{
				"box" : 				{
					"id" : "obj-160",
					"maxclass" : "newobj",
					"numinlets" : 0,
					"numoutlets" : 1,
					"outlettype" : [ "" ],
					"patcher" : 					{
						"fileversion" : 1,
						"appversion" : 						{
							"major" : 7,
							"minor" : 3,
							"revision" : 5,
							"architecture" : "x64",
							"modernui" : 1
						}
,
						"rect" : [ 525.0, 237.0, 640.0, 480.0 ],
						"bglocked" : 0,
						"openinpresentation" : 0,
						"default_fontsize" : 12.0,
						"default_fontface" : 0,
						"default_fontname" : "Arial",
						"gridonopen" : 1,
						"gridsize" : [ 15.0, 15.0 ],
						"gridsnaponopen" : 1,
						"objectsnaponopen" : 1,
						"statusbarvisible" : 2,
						"toolbarvisible" : 1,
						"lefttoolbarpinned" : 0,
						"toptoolbarpinned" : 0,
						"righttoolbarpinned" : 0,
						"bottomtoolbarpinned" : 0,
						"toolbars_unpinned_last_save" : 0,
						"tallnewobj" : 0,
						"boxanimatetime" : 200,
						"enablehscroll" : 1,
						"enablevscroll" : 1,
						"devicewidth" : 0.0,
						"description" : "",
						"digest" : "",
						"tags" : "",
						"style" : "",
						"subpatcher_template" : "",
						"boxes" : [ 							{
								"box" : 								{
									"id" : "obj-42",
									"maxclass" : "newobj",
									"numinlets" : 1,
									"numoutlets" : 1,
									"outlettype" : [ "bang" ],
									"patching_rect" : [ 50.0, 78.0, 60.0, 22.0 ],
									"style" : "",
									"text" : "loadbang"
								}

							}
, 							{
								"box" : 								{
									"id" : "obj-41",
									"linecount" : 3,
									"maxclass" : "comment",
									"numinlets" : 1,
									"numoutlets" : 0,
									"patching_rect" : [ 50.0, 32.0, 150.0, 48.0 ],
									"style" : "",
									"text" : "Meta list should contain keys and values with a comma to separate pairs"
								}

							}
, 							{
								"box" : 								{
									"id" : "obj-27",
									"maxclass" : "message",
									"numinlets" : 2,
									"numoutlets" : 1,
									"outlettype" : [ "" ],
									"patching_rect" : [ 50.0, 174.0, 531.0, 22.0 ],
									"style" : "",
									"text" : "function module, type file player, parameters::p1 list, parameters::p2 string, parameters::p3 integer"
								}

							}
, 							{
								"box" : 								{
									"comment" : "",
									"id" : "obj-16",
									"index" : 1,
									"maxclass" : "outlet",
									"numinlets" : 1,
									"numoutlets" : 0,
									"patching_rect" : [ 50.0, 298.0, 30.0, 30.0 ],
									"style" : ""
								}

							}
 ],
						"lines" : [ 							{
								"patchline" : 								{
									"destination" : [ "obj-16", 0 ],
									"source" : [ "obj-27", 0 ]
								}

							}
, 							{
								"patchline" : 								{
									"destination" : [ "obj-27", 0 ],
									"source" : [ "obj-42", 0 ]
								}

							}
 ]
					}
,
					"patching_rect" : [ 1474.588745, 989.0, 79.0, 22.0 ],
					"saved_object_attributes" : 					{
						"description" : "",
						"digest" : "",
						"globalpatchername" : "",
						"style" : "",
						"tags" : ""
					}
,
					"style" : "",
					"text" : "p meta_build"
				}

			}
, 			{
				"box" : 				{
					"id" : "obj-161",
					"maxclass" : "newobj",
					"numinlets" : 1,
					"numoutlets" : 1,
					"outlettype" : [ "" ],
					"patching_rect" : [ 1357.588745, 1015.0, 92.0, 22.0 ],
					"style" : "",
					"text" : "loadmess path"
				}

			}
, 			{
				"box" : 				{
					"id" : "obj-164",
					"maxclass" : "newobj",
					"numinlets" : 1,
					"numoutlets" : 1,
					"outlettype" : [ "" ],
					"patching_rect" : [ 1474.588745, 1015.0, 74.0, 22.0 ],
					"style" : "",
					"text" : "pvar metaIn"
				}

			}
, 			{
				"box" : 				{
					"id" : "obj-44",
					"maxclass" : "newobj",
					"numinlets" : 1,
					"numoutlets" : 1,
					"outlettype" : [ "" ],
					"patching_rect" : [ 1357.588745, 1069.0, 81.0, 22.0 ],
					"style" : "",
					"text" : "prepend path"
				}

			}
, 			{
				"box" : 				{
					"id" : "obj-165",
					"maxclass" : "newobj",
					"numinlets" : 1,
					"numoutlets" : 2,
					"outlettype" : [ "", "" ],
					"patching_rect" : [ 1357.588745, 1042.0, 69.0, 22.0 ],
					"save" : [ "#N", "thispatcher", ";", "#Q", "end", ";" ],
					"style" : "",
					"text" : "thispatcher"
				}

			}
, 			{
				"box" : 				{
					"id" : "obj-166",
					"maxclass" : "newobj",
					"numinlets" : 1,
					"numoutlets" : 1,
					"outlettype" : [ "" ],
					"patching_rect" : [ 1474.588745, 1101.0, 92.0, 22.0 ],
					"style" : "",
					"text" : "pvar priorityList"
				}

			}
, 			{
				"box" : 				{
					"id" : "obj-168",
					"maxclass" : "newobj",
					"numinlets" : 1,
					"numoutlets" : 1,
					"outlettype" : [ "" ],
					"patching_rect" : [ 1592.422485, 1038.5, 125.0, 22.0 ],
					"style" : "",
					"text" : "pvar presetSaveLoad"
				}

			}
, 			{
				"box" : 				{
					"id" : "obj-80",
					"maxclass" : "comment",
					"numinlets" : 1,
					"numoutlets" : 0,
					"patching_rect" : [ 1499.071167, 58.051498, 45.0, 20.0 ],
					"style" : "",
					"text" : "backIn"
				}

			}
, 			{
				"box" : 				{
					"id" : "obj-83",
					"maxclass" : "newobj",
					"numinlets" : 1,
					"numoutlets" : 1,
					"outlettype" : [ "" ],
					"patching_rect" : [ 1474.071167, 58.051498, 21.0, 22.0 ],
					"style" : "",
					"text" : "t l",
					"varname" : "backIn"
				}

			}
, 			{
				"box" : 				{
					"id" : "obj-85",
					"linecount" : 3,
					"maxclass" : "comment",
					"numinlets" : 1,
					"numoutlets" : 0,
					"patching_rect" : [ 1634.724731, 45.551498, 150.0, 48.0 ],
					"style" : "",
					"text" : "p1 = Audio Name In\np2 = Signal Out Routing\np3 = Volume"
				}

			}
, 			{
				"box" : 				{
					"fontface" : 1,
					"id" : "obj-88",
					"maxclass" : "comment",
					"numinlets" : 1,
					"numoutlets" : 0,
					"patching_rect" : [ 1653.299805, 93.75914, 131.424927, 20.0 ],
					"style" : "",
					"text" : "Parameter In Routing"
				}

			}
, 			{
				"box" : 				{
					"comment" : "",
					"id" : "obj-90",
					"index" : 0,
					"maxclass" : "inlet",
					"numinlets" : 0,
					"numoutlets" : 1,
					"outlettype" : [ "" ],
					"patching_rect" : [ 1551.674683, 58.051498, 25.0, 25.0 ],
					"style" : ""
				}

			}
, 			{
				"box" : 				{
					"fontface" : 0,
					"fontname" : "Arial",
					"fontsize" : 12.0,
					"id" : "obj-91",
					"maxclass" : "newobj",
					"numinlets" : 1,
					"numoutlets" : 0,
					"patching_rect" : [ 1444.688477, 85.051498, 123.0, 22.0 ],
					"style" : "",
					"text" : "msdp.module.routing"
				}

			}
, 			{
				"box" : 				{
					"comment" : "",
					"id" : "obj-41",
					"index" : 0,
					"maxclass" : "inlet",
					"numinlets" : 0,
					"numoutlets" : 1,
					"outlettype" : [ "" ],
					"patching_rect" : [ 1444.688477, 58.051498, 25.0, 25.0 ],
					"style" : ""
				}

			}
, 			{
				"box" : 				{
					"id" : "obj-56",
					"maxclass" : "newobj",
					"numinlets" : 2,
					"numoutlets" : 1,
					"outlettype" : [ "" ],
					"patching_rect" : [ 55.0, 940.423584, 163.0, 22.0 ],
					"presentation" : 1,
					"presentation_rect" : [ 27.328125, 319.265625, 163.0, 22.0 ],
					"style" : "",
					"text" : "msdp.param.line.defer p4 64",
					"varname" : "p4"
				}

			}
, 			{
				"box" : 				{
					"args" : [ "1.Basic", 0, 127, "i" ],
					"bgmode" : 0,
					"border" : 0,
					"clickthrough" : 0,
					"enablehscroll" : 0,
					"enablevscroll" : 0,
					"id" : "obj-75",
					"lockeddragscroll" : 0,
					"maxclass" : "bpatcher",
					"name" : "msdp.dial.1.maxpat",
					"numinlets" : 1,
					"numoutlets" : 1,
					"offset" : [ 1.0, 3.0 ],
					"outlettype" : [ "float" ],
					"patching_rect" : [ 55.0, 965.423584, 58.0, 85.0 ],
					"presentation" : 1,
					"presentation_rect" : [ 27.328125, 343.265625, 55.0, 87.0 ],
					"varname" : "dial1",
					"viewvisibility" : 1
				}

			}
, 			{
				"box" : 				{
					"angle" : 270.0,
					"background" : 1,
					"bgcolor" : [ 0.317647, 0.654902, 0.976471, 1.0 ],
					"border" : 2,
					"bordercolor" : [ 0.0, 0.0, 0.0, 1.0 ],
					"id" : "obj-92",
					"maxclass" : "panel",
					"mode" : 0,
					"numinlets" : 1,
					"numoutlets" : 0,
					"patching_rect" : [ 1424.174683, 45.551498, 372.489258, 159.744171 ],
					"proportion" : 0.39,
					"style" : ""
				}

			}
, 			{
				"box" : 				{
					"angle" : 270.0,
					"background" : 1,
					"bgcolor" : [ 0.317647, 0.654902, 0.976471, 1.0 ],
					"border" : 2,
					"bordercolor" : [ 0.0, 0.0, 0.0, 1.0 ],
					"id" : "obj-169",
					"maxclass" : "panel",
					"mode" : 0,
					"numinlets" : 1,
					"numoutlets" : 0,
					"patching_rect" : [ 1352.338745, 942.0, 229.25, 206.0 ],
					"proportion" : 0.39,
					"style" : ""
				}

			}
, 			{
				"box" : 				{
					"angle" : 270.0,
					"background" : 1,
					"bgcolor" : [ 0.317647, 0.654902, 0.976471, 1.0 ],
					"border" : 2,
					"bordercolor" : [ 0.0, 0.0, 0.0, 1.0 ],
					"id" : "obj-170",
					"maxclass" : "panel",
					"mode" : 0,
					"numinlets" : 1,
					"numoutlets" : 0,
					"patching_rect" : [ 1587.172485, 942.0, 230.0, 206.0 ],
					"proportion" : 0.39,
					"style" : ""
				}

			}
, 			{
				"box" : 				{
					"angle" : 270.0,
					"background" : 1,
					"bgcolor" : [ 0.317647, 0.654902, 0.976471, 1.0 ],
					"border" : 2,
					"bordercolor" : [ 0.0, 0.0, 0.0, 1.0 ],
					"id" : "obj-94",
					"maxclass" : "panel",
					"mode" : 0,
					"numinlets" : 1,
					"numoutlets" : 0,
					"patching_rect" : [ 773.76062, 942.0, 573.966431, 206.0 ],
					"proportion" : 0.39,
					"style" : ""
				}

			}
 ],
		"lines" : [ 			{
				"patchline" : 				{
					"destination" : [ "obj-14", 0 ],
					"source" : [ "obj-10", 0 ]
				}

			}
, 			{
				"patchline" : 				{
					"destination" : [ "obj-108", 0 ],
					"source" : [ "obj-104", 0 ]
				}

			}
, 			{
				"patchline" : 				{
					"destination" : [ "obj-77", 0 ],
					"order" : 0,
					"source" : [ "obj-105", 0 ]
				}

			}
, 			{
				"patchline" : 				{
					"destination" : [ "obj-84", 1 ],
					"order" : 0,
					"source" : [ "obj-107", 0 ]
				}

			}
, 			{
				"patchline" : 				{
					"destination" : [ "obj-68", 0 ],
					"source" : [ "obj-109", 1 ]
				}

			}
, 			{
				"patchline" : 				{
					"destination" : [ "obj-84", 4 ],
					"source" : [ "obj-109", 0 ]
				}

			}
, 			{
				"patchline" : 				{
					"destination" : [ "obj-66", 0 ],
					"order" : 0,
					"source" : [ "obj-110", 0 ]
				}

			}
, 			{
				"patchline" : 				{
					"destination" : [ "obj-84", 0 ],
					"order" : 1,
					"source" : [ "obj-110", 0 ]
				}

			}
, 			{
				"patchline" : 				{
					"destination" : [ "obj-68", 0 ],
					"midpoints" : [ 1155.34375, 1042.0, 1244.936035, 1042.0 ],
					"source" : [ "obj-111", 1 ]
				}

			}
, 			{
				"patchline" : 				{
					"destination" : [ "obj-84", 3 ],
					"order" : 0,
					"source" : [ "obj-111", 0 ]
				}

			}
, 			{
				"patchline" : 				{
					"destination" : [ "obj-115", 0 ],
					"midpoints" : [ 895.456909, 526.0, 879.456909, 526.0, 879.456909, 450.5, 895.456909, 450.5 ],
					"source" : [ "obj-114", 0 ]
				}

			}
, 			{
				"patchline" : 				{
					"destination" : [ "obj-114", 0 ],
					"source" : [ "obj-115", 0 ]
				}

			}
, 			{
				"patchline" : 				{
					"destination" : [ "obj-8", 0 ],
					"midpoints" : [ 64.5, 918.423584, 43.5, 918.423584, 43.5, 850.810638, 64.5, 850.810638 ],
					"source" : [ "obj-13", 0 ]
				}

			}
, 			{
				"patchline" : 				{
					"destination" : [ "obj-10", 0 ],
					"midpoints" : [ 59.26062, 1141.274108, 38.26062, 1141.274108, 38.26062, 1069.387054, 59.26062, 1069.387054 ],
					"source" : [ "obj-14", 0 ]
				}

			}
, 			{
				"patchline" : 				{
					"destination" : [ "obj-168", 0 ],
					"source" : [ "obj-155", 0 ]
				}

			}
, 			{
				"patchline" : 				{
					"destination" : [ "obj-82", 0 ],
					"source" : [ "obj-155", 1 ]
				}

			}
, 			{
				"patchline" : 				{
					"destination" : [ "obj-67", 0 ],
					"order" : 0,
					"source" : [ "obj-158", 0 ]
				}

			}
, 			{
				"patchline" : 				{
					"destination" : [ "obj-17", 0 ],
					"midpoints" : [ 856.748657, 819.0, 956.248657, 819.0 ],
					"source" : [ "obj-16", 0 ]
				}

			}
, 			{
				"patchline" : 				{
					"destination" : [ "obj-164", 0 ],
					"midpoints" : [ 1484.088745, 1011.0, 1484.088745, 1011.0 ],
					"source" : [ "obj-160", 0 ]
				}

			}
, 			{
				"patchline" : 				{
					"destination" : [ "obj-165", 0 ],
					"source" : [ "obj-161", 0 ]
				}

			}
, 			{
				"patchline" : 				{
					"destination" : [ "obj-44", 0 ],
					"midpoints" : [ 1417.088745, 1066.0, 1367.088745, 1066.0 ],
					"source" : [ "obj-165", 1 ]
				}

			}
, 			{
				"patchline" : 				{
					"destination" : [ "obj-31", 0 ],
					"source" : [ "obj-17", 0 ]
				}

			}
, 			{
				"patchline" : 				{
					"destination" : [ "obj-6", 0 ],
					"midpoints" : [ 64.5, 742.387054, 40.5, 742.387054, 40.5, 665.0, 64.5, 665.0 ],
					"source" : [ "obj-2", 0 ]
				}

			}
, 			{
				"patchline" : 				{
					"destination" : [ "obj-46", 0 ],
					"midpoints" : [ 1033.806763, 791.0, 1100.748657, 791.0 ],
					"source" : [ "obj-21", 0 ]
				}

			}
, 			{
				"patchline" : 				{
					"destination" : [ "obj-31", 0 ],
					"source" : [ "obj-23", 0 ]
				}

			}
, 			{
				"patchline" : 				{
					"destination" : [ "obj-37", 0 ],
					"source" : [ "obj-24", 0 ]
				}

			}
, 			{
				"patchline" : 				{
					"destination" : [ "obj-31", 0 ],
					"source" : [ "obj-26", 0 ]
				}

			}
, 			{
				"patchline" : 				{
					"destination" : [ "obj-38", 0 ],
					"source" : [ "obj-27", 0 ]
				}

			}
, 			{
				"patchline" : 				{
					"destination" : [ "obj-9", 0 ],
					"midpoints" : [ 64.5, 836.127914, 47.5, 836.127914, 47.5, 763.755829, 64.5, 763.755829 ],
					"source" : [ "obj-3", 0 ]
				}

			}
, 			{
				"patchline" : 				{
					"destination" : [ "obj-33", 0 ],
					"source" : [ "obj-30", 0 ]
				}

			}
, 			{
				"patchline" : 				{
					"destination" : [ "obj-31", 0 ],
					"source" : [ "obj-32", 0 ]
				}

			}
, 			{
				"patchline" : 				{
					"destination" : [ "obj-32", 0 ],
					"source" : [ "obj-33", 0 ]
				}

			}
, 			{
				"patchline" : 				{
					"destination" : [ "obj-38", 1 ],
					"source" : [ "obj-34", 0 ]
				}

			}
, 			{
				"patchline" : 				{
					"destination" : [ "obj-37", 1 ],
					"source" : [ "obj-35", 0 ]
				}

			}
, 			{
				"patchline" : 				{
					"destination" : [ "obj-23", 0 ],
					"source" : [ "obj-37", 0 ]
				}

			}
, 			{
				"patchline" : 				{
					"destination" : [ "obj-26", 0 ],
					"source" : [ "obj-38", 0 ]
				}

			}
, 			{
				"patchline" : 				{
					"destination" : [ "obj-91", 0 ],
					"source" : [ "obj-41", 0 ]
				}

			}
, 			{
				"patchline" : 				{
					"destination" : [ "obj-156", 0 ],
					"source" : [ "obj-44", 0 ]
				}

			}
, 			{
				"patchline" : 				{
					"destination" : [ "obj-47", 0 ],
					"source" : [ "obj-45", 1 ]
				}

			}
, 			{
				"patchline" : 				{
					"destination" : [ "obj-31", 0 ],
					"source" : [ "obj-46", 0 ]
				}

			}
, 			{
				"patchline" : 				{
					"destination" : [ "obj-46", 0 ],
					"source" : [ "obj-47", 0 ]
				}

			}
, 			{
				"patchline" : 				{
					"destination" : [ "obj-51", 0 ],
					"source" : [ "obj-48", 1 ]
				}

			}
, 			{
				"patchline" : 				{
					"destination" : [ "obj-17", 0 ],
					"source" : [ "obj-49", 0 ]
				}

			}
, 			{
				"patchline" : 				{
					"destination" : [ "obj-49", 0 ],
					"source" : [ "obj-51", 0 ]
				}

			}
, 			{
				"patchline" : 				{
					"destination" : [ "obj-75", 0 ],
					"midpoints" : [ 64.5, 955.542374, 64.5, 955.542374 ],
					"source" : [ "obj-56", 0 ]
				}

			}
, 			{
				"patchline" : 				{
					"destination" : [ "obj-2", 0 ],
					"source" : [ "obj-6", 0 ]
				}

			}
, 			{
				"patchline" : 				{
					"destination" : [ "obj-166", 0 ],
					"source" : [ "obj-67", 0 ]
				}

			}
, 			{
				"patchline" : 				{
					"destination" : [ "obj-77", 1 ],
					"midpoints" : [ 791.956909, 995.718842, 856.26062, 995.718842 ],
					"source" : [ "obj-73", 0 ]
				}

			}
, 			{
				"patchline" : 				{
					"destination" : [ "obj-84", 2 ],
					"order" : 0,
					"source" : [ "obj-74", 0 ]
				}

			}
, 			{
				"patchline" : 				{
					"destination" : [ "obj-56", 0 ],
					"midpoints" : [ 64.5, 1053.310639, 39.5, 1053.310639, 39.5, 931.774109, 64.5, 931.774109 ],
					"source" : [ "obj-75", 0 ]
				}

			}
, 			{
				"patchline" : 				{
					"destination" : [ "obj-76", 0 ],
					"source" : [ "obj-77", 2 ]
				}

			}
, 			{
				"patchline" : 				{
					"destination" : [ "obj-89", 0 ],
					"source" : [ "obj-77", 1 ]
				}

			}
, 			{
				"patchline" : 				{
					"destination" : [ "obj-73", 0 ],
					"source" : [ "obj-79", 0 ]
				}

			}
, 			{
				"patchline" : 				{
					"destination" : [ "obj-13", 0 ],
					"source" : [ "obj-8", 0 ]
				}

			}
, 			{
				"patchline" : 				{
					"destination" : [ "obj-91", 0 ],
					"order" : 0,
					"source" : [ "obj-83", 0 ]
				}

			}
, 			{
				"patchline" : 				{
					"destination" : [ "obj-191", 0 ],
					"source" : [ "obj-84", 1 ]
				}

			}
, 			{
				"patchline" : 				{
					"destination" : [ "obj-72", 0 ],
					"source" : [ "obj-84", 0 ]
				}

			}
, 			{
				"patchline" : 				{
					"destination" : [ "obj-3", 0 ],
					"source" : [ "obj-9", 0 ]
				}

			}
 ],
		"dependency_cache" : [ 			{
				"name" : "msdp.dial.1.maxpat",
				"bootpath" : "~/Documents/GitHub/source-code/System_Files/Includes",
				"patcherrelativepath" : "../../Includes",
				"type" : "JSON",
				"implicit" : 1
			}
, 			{
				"name" : "cyan_light_knob.png",
				"bootpath" : "~/Documents/GitHub/source-code/System_Files/Images",
				"patcherrelativepath" : "../../Images",
				"type" : "PNG ",
				"implicit" : 1
			}
, 			{
				"name" : "msdp.param.line.defer.maxpat",
				"bootpath" : "~/Documents/GitHub/source-code/System_Files/Includes",
				"patcherrelativepath" : "../../Includes",
				"type" : "JSON",
				"implicit" : 1
			}
, 			{
				"name" : "msdp.module.routing.maxpat",
				"bootpath" : "~/Documents/GitHub/source-code/System_Files/Includes",
				"patcherrelativepath" : "../../Includes",
				"type" : "JSON",
				"implicit" : 1
			}
, 			{
				"name" : "MSDP_Global_Preset_Manager.maxpat",
				"bootpath" : "~/Documents/GitHub/source-code/System_Files/Includes",
				"patcherrelativepath" : "../../Includes",
				"type" : "JSON",
				"implicit" : 1
			}
, 			{
				"name" : "MSDP_nameFinder.js",
				"bootpath" : "~/Documents/GitHub/source-code/System_Files/Includes",
				"patcherrelativepath" : "../../Includes",
				"type" : "TEXT",
				"implicit" : 1
			}
, 			{
				"name" : "MSDP_Namer_and_MIRA.maxpat",
				"bootpath" : "~/Documents/GitHub/source-code/System_Files/Includes",
				"patcherrelativepath" : "../../Includes",
				"type" : "JSON",
				"implicit" : 1
			}
, 			{
				"name" : "MSDP_presetSaveLoad.maxpat",
				"bootpath" : "~/Documents/GitHub/source-code/System_Files/Includes",
				"patcherrelativepath" : "../../Includes",
				"type" : "JSON",
				"implicit" : 1
			}
, 			{
				"name" : "msdp.param.maxpat",
				"bootpath" : "~/Documents/GitHub/source-code/System_Files/Includes",
				"patcherrelativepath" : "../../Includes",
				"type" : "JSON",
				"implicit" : 1
			}
, 			{
				"name" : "msdp.param.line.maxpat",
				"bootpath" : "~/Documents/GitHub/source-code/System_Files/Includes",
				"patcherrelativepath" : "../../Includes",
				"type" : "JSON",
				"implicit" : 1
			}
, 			{
				"name" : "msdp.param.defer.maxpat",
				"bootpath" : "~/Documents/GitHub/source-code/System_Files/Includes",
				"patcherrelativepath" : "../../Includes",
				"type" : "JSON",
				"implicit" : 1
			}
, 			{
				"name" : "msdp.param.textedit.maxpat",
				"bootpath" : "~/Documents/GitHub/source-code/System_Files/Includes",
				"patcherrelativepath" : "../../Includes",
				"type" : "JSON",
				"implicit" : 1
			}
 ],
		"autosave" : 0,
		"styles" : [ 			{
				"name" : "AudioStatus_Menu",
				"default" : 				{
					"bgfillcolor" : 					{
						"type" : "color",
						"color" : [ 0.294118, 0.313726, 0.337255, 1 ],
						"color1" : [ 0.454902, 0.462745, 0.482353, 0.0 ],
						"color2" : [ 0.290196, 0.309804, 0.301961, 1.0 ],
						"angle" : 270.0,
						"proportion" : 0.39,
						"autogradient" : 0
					}

				}
,
				"parentstyle" : "",
				"multi" : 0
			}
, 			{
				"name" : "default_style",
				"newobj" : 				{
					"textcolor_inverse" : [ 0.0, 0.0, 0.0, 1.0 ],
					"accentcolor" : [ 0.65098, 0.666667, 0.662745, 1.0 ],
					"bgcolor" : [ 1.0, 1.0, 1.0, 1.0 ]
				}
,
				"button" : 				{
					"bgcolor" : [ 0.682032, 0.698052, 0.748716, 1.0 ],
					"color" : [ 0.960784, 0.827451, 0.156863, 1.0 ]
				}
,
				"toggle" : 				{
					"bgcolor" : [ 0.636487, 0.648652, 0.683149, 1.0 ],
					"elementcolor" : [ 0.786675, 0.801885, 0.845022, 1.0 ],
					"color" : [ 0.0, 0.0, 0.0, 1.0 ]
				}
,
				"parentstyle" : "",
				"multi" : 1
			}
, 			{
				"name" : "default_style-1",
				"newobj" : 				{
					"textcolor_inverse" : [ 0.0, 0.0, 0.0, 1.0 ],
					"accentcolor" : [ 0.65098, 0.666667, 0.662745, 1.0 ],
					"bgcolor" : [ 1.0, 1.0, 1.0, 1.0 ]
				}
,
				"button" : 				{
					"bgcolor" : [ 0.682032, 0.698052, 0.748716, 1.0 ],
					"color" : [ 0.960784, 0.827451, 0.156863, 1.0 ]
				}
,
				"toggle" : 				{
					"bgcolor" : [ 0.636487, 0.648652, 0.683149, 1.0 ],
					"elementcolor" : [ 0.786675, 0.801885, 0.845022, 1.0 ],
					"color" : [ 0.0, 0.0, 0.0, 1.0 ]
				}
,
				"parentstyle" : "",
				"multi" : 0
			}
, 			{
				"name" : "helpfile_label-1",
				"default" : 				{
					"textcolor" : [ 0.501961, 0.501961, 0.501961, 1.0 ],
					"fontsize" : [ 13.0 ],
					"fontname" : [ "Arial" ]
				}
,
				"parentstyle" : "",
				"multi" : 0
			}
, 			{
				"name" : "jpatcher001",
				"parentstyle" : "default",
				"multi" : 0
			}
, 			{
				"name" : "ksliderWhite",
				"default" : 				{
					"color" : [ 1.0, 1.0, 1.0, 1.0 ]
				}
,
				"parentstyle" : "",
				"multi" : 0
			}
, 			{
				"name" : "master_style",
				"message" : 				{
					"bgfillcolor" : 					{
						"type" : "gradient",
						"color1" : [ 0.786675, 0.801885, 0.845022, 1.0 ],
						"color2" : [ 0.65098, 0.666667, 0.662745, 1.0 ],
						"color" : [ 0.290196, 0.309804, 0.301961, 1.0 ],
						"angle" : 270.0,
						"proportion" : 0.39,
						"autogradient" : 0
					}
,
					"textcolor_inverse" : [ 0.0, 0.0, 0.0, 1.0 ]
				}
,
				"umenu" : 				{
					"bgfillcolor" : 					{
						"type" : "gradient",
						"color1" : [ 0.786675, 0.801885, 0.845022, 1.0 ],
						"color2" : [ 0.65098, 0.666667, 0.662745, 1.0 ],
						"color" : [ 0.290196, 0.309804, 0.301961, 1.0 ],
						"angle" : 270.0,
						"proportion" : 0.39,
						"autogradient" : 0
					}

				}
,
				"attrui" : 				{
					"textcolor_inverse" : [ 0.0, 0.0, 0.0, 1.0 ],
					"bgcolor" : [ 0.786675, 0.801885, 0.845022, 1.0 ]
				}
,
				"newobj" : 				{
					"textcolor_inverse" : [ 0.0, 0.0, 0.0, 1.0 ],
					"accentcolor" : [ 0.65098, 0.666667, 0.662745, 1.0 ],
					"bgcolor" : [ 1.0, 1.0, 1.0, 1.0 ]
				}
,
				"multislider" : 				{
					"bgcolor" : [ 1.0, 1.0, 1.0, 1.0 ],
					"color" : [ 0.0, 0.0, 0.0, 1.0 ]
				}
,
				"slider" : 				{
					"bgcolor" : [ 1.0, 1.0, 1.0, 1.0 ],
					"elementcolor" : [ 0.65098, 0.666667, 0.662745, 1.0 ],
					"color" : [ 0.461105, 0.492646, 0.591878, 1.0 ]
				}
,
				"button" : 				{
					"bgcolor" : [ 0.682032, 0.698052, 0.748716, 1.0 ],
					"elementcolor" : [ 0.786675, 0.801885, 0.845022, 1.0 ],
					"color" : [ 1.0, 0.95051, 0.0, 1.0 ]
				}
,
				"ezdac~" : 				{
					"bgcolor" : [ 0.65098, 0.666667, 0.662745, 1.0 ],
					"elementcolor" : [ 0.862745, 0.870588, 0.878431, 1.0 ],
					"color" : [ 0.0, 0.0, 0.0, 1.0 ]
				}
,
				"function" : 				{
					"bgcolor" : [ 0.65098, 0.666667, 0.662745, 1.0 ],
					"color" : [ 0.0, 0.0, 0.0, 1.0 ]
				}
,
				"toggle" : 				{
					"bgcolor" : [ 0.682032, 0.698052, 0.748716, 1.0 ],
					"elementcolor" : [ 0.65098, 0.666667, 0.662745, 1.0 ],
					"color" : [ 0.0, 0.0, 0.0, 1.0 ]
				}
,
				"ezadc~" : 				{
					"bgcolor" : [ 0.65098, 0.666667, 0.662745, 1.0 ],
					"elementcolor" : [ 0.862745, 0.870588, 0.878431, 1.0 ],
					"color" : [ 0.0, 0.0, 0.0, 1.0 ]
				}
,
				"kslider" : 				{
					"elementcolor" : [ 0.65098, 0.666667, 0.662745, 1.0 ],
					"color" : [ 1.0, 1.0, 1.0, 1.0 ]
				}
,
				"gain~" : 				{
					"elementcolor" : [ 0.65098, 0.666667, 0.662745, 1.0 ],
					"color" : [ 1.0, 0.861448, 0.16921, 1.0 ]
				}
,
				"parentstyle" : "",
				"multi" : 1
			}
, 			{
				"name" : "master_style-1",
				"message" : 				{
					"bgfillcolor" : 					{
						"type" : "gradient",
						"color1" : [ 0.786675, 0.801885, 0.845022, 1.0 ],
						"color2" : [ 0.65098, 0.666667, 0.662745, 1.0 ],
						"color" : [ 0.290196, 0.309804, 0.301961, 1.0 ],
						"angle" : 270.0,
						"proportion" : 0.39,
						"autogradient" : 0.0
					}
,
					"textcolor_inverse" : [ 0.0, 0.0, 0.0, 1.0 ]
				}
,
				"umenu" : 				{
					"bgfillcolor" : 					{
						"type" : "gradient",
						"color1" : [ 0.786675, 0.801885, 0.845022, 1.0 ],
						"color2" : [ 0.65098, 0.666667, 0.662745, 1.0 ],
						"color" : [ 0.290196, 0.309804, 0.301961, 1.0 ],
						"angle" : 270.0,
						"proportion" : 0.39,
						"autogradient" : 0
					}

				}
,
				"attrui" : 				{
					"textcolor_inverse" : [ 0.0, 0.0, 0.0, 1.0 ],
					"bgcolor" : [ 0.786675, 0.801885, 0.845022, 1.0 ]
				}
,
				"newobj" : 				{
					"textcolor_inverse" : [ 0.0, 0.0, 0.0, 1.0 ],
					"accentcolor" : [ 0.65098, 0.666667, 0.662745, 1.0 ],
					"bgcolor" : [ 1.0, 1.0, 1.0, 1.0 ]
				}
,
				"multislider" : 				{
					"bgcolor" : [ 1.0, 1.0, 1.0, 1.0 ],
					"color" : [ 0.0, 0.0, 0.0, 1.0 ]
				}
,
				"slider" : 				{
					"bgcolor" : [ 1.0, 1.0, 1.0, 1.0 ],
					"elementcolor" : [ 0.65098, 0.666667, 0.662745, 1.0 ],
					"color" : [ 0.461105, 0.492646, 0.591878, 1.0 ]
				}
,
				"button" : 				{
					"bgcolor" : [ 0.682032, 0.698052, 0.748716, 1.0 ],
					"elementcolor" : [ 0.786675, 0.801885, 0.845022, 1.0 ],
					"color" : [ 1.0, 0.95051, 0.0, 1.0 ]
				}
,
				"ezdac~" : 				{
					"bgcolor" : [ 0.65098, 0.666667, 0.662745, 1.0 ],
					"elementcolor" : [ 0.862745, 0.870588, 0.878431, 1.0 ],
					"color" : [ 0.0, 0.0, 0.0, 1.0 ]
				}
,
				"function" : 				{
					"bgcolor" : [ 0.65098, 0.666667, 0.662745, 1.0 ],
					"color" : [ 0.0, 0.0, 0.0, 1.0 ]
				}
,
				"toggle" : 				{
					"bgcolor" : [ 0.682032, 0.698052, 0.748716, 1.0 ],
					"elementcolor" : [ 0.65098, 0.666667, 0.662745, 1.0 ],
					"color" : [ 0.0, 0.0, 0.0, 1.0 ]
				}
,
				"ezadc~" : 				{
					"bgcolor" : [ 0.65098, 0.666667, 0.662745, 1.0 ],
					"elementcolor" : [ 0.862745, 0.870588, 0.878431, 1.0 ],
					"color" : [ 0.0, 0.0, 0.0, 1.0 ]
				}
,
				"kslider" : 				{
					"elementcolor" : [ 0.65098, 0.666667, 0.662745, 1.0 ],
					"color" : [ 1.0, 1.0, 1.0, 1.0 ]
				}
,
				"gain~" : 				{
					"elementcolor" : [ 0.65098, 0.666667, 0.662745, 1.0 ],
					"color" : [ 1.0, 0.861448, 0.16921, 1.0 ]
				}
,
				"parentstyle" : "",
				"multi" : 0
			}
, 			{
				"name" : "master_style-2",
				"message" : 				{
					"bgfillcolor" : 					{
						"type" : "gradient",
						"color1" : [ 0.786675, 0.801885, 0.845022, 1.0 ],
						"color2" : [ 0.65098, 0.666667, 0.662745, 1.0 ],
						"color" : [ 0.290196, 0.309804, 0.301961, 1.0 ],
						"angle" : 270.0,
						"proportion" : 0.39,
						"autogradient" : 0.0
					}
,
					"textcolor_inverse" : [ 0.0, 0.0, 0.0, 1.0 ]
				}
,
				"umenu" : 				{
					"bgfillcolor" : 					{
						"type" : "gradient",
						"color1" : [ 0.786675, 0.801885, 0.845022, 1.0 ],
						"color2" : [ 0.65098, 0.666667, 0.662745, 1.0 ],
						"color" : [ 0.290196, 0.309804, 0.301961, 1.0 ],
						"angle" : 270.0,
						"proportion" : 0.39,
						"autogradient" : 0
					}

				}
,
				"attrui" : 				{
					"textcolor_inverse" : [ 0.0, 0.0, 0.0, 1.0 ],
					"bgcolor" : [ 0.786675, 0.801885, 0.845022, 1.0 ]
				}
,
				"newobj" : 				{
					"textcolor_inverse" : [ 0.0, 0.0, 0.0, 1.0 ],
					"accentcolor" : [ 0.65098, 0.666667, 0.662745, 1.0 ],
					"bgcolor" : [ 1.0, 1.0, 1.0, 1.0 ]
				}
,
				"multislider" : 				{
					"bgcolor" : [ 1.0, 1.0, 1.0, 1.0 ],
					"color" : [ 0.0, 0.0, 0.0, 1.0 ]
				}
,
				"slider" : 				{
					"bgcolor" : [ 1.0, 1.0, 1.0, 1.0 ],
					"elementcolor" : [ 0.65098, 0.666667, 0.662745, 1.0 ],
					"color" : [ 0.461105, 0.492646, 0.591878, 1.0 ]
				}
,
				"button" : 				{
					"bgcolor" : [ 0.682032, 0.698052, 0.748716, 1.0 ],
					"elementcolor" : [ 0.786675, 0.801885, 0.845022, 1.0 ],
					"color" : [ 1.0, 0.95051, 0.0, 1.0 ]
				}
,
				"ezdac~" : 				{
					"bgcolor" : [ 0.65098, 0.666667, 0.662745, 1.0 ],
					"elementcolor" : [ 0.862745, 0.870588, 0.878431, 1.0 ],
					"color" : [ 0.0, 0.0, 0.0, 1.0 ]
				}
,
				"function" : 				{
					"bgcolor" : [ 0.65098, 0.666667, 0.662745, 1.0 ],
					"color" : [ 0.0, 0.0, 0.0, 1.0 ]
				}
,
				"toggle" : 				{
					"bgcolor" : [ 0.682032, 0.698052, 0.748716, 1.0 ],
					"elementcolor" : [ 0.65098, 0.666667, 0.662745, 1.0 ],
					"color" : [ 0.0, 0.0, 0.0, 1.0 ]
				}
,
				"ezadc~" : 				{
					"bgcolor" : [ 0.65098, 0.666667, 0.662745, 1.0 ],
					"elementcolor" : [ 0.862745, 0.870588, 0.878431, 1.0 ],
					"color" : [ 0.0, 0.0, 0.0, 1.0 ]
				}
,
				"kslider" : 				{
					"elementcolor" : [ 0.65098, 0.666667, 0.662745, 1.0 ],
					"color" : [ 1.0, 1.0, 1.0, 1.0 ]
				}
,
				"gain~" : 				{
					"elementcolor" : [ 0.65098, 0.666667, 0.662745, 1.0 ],
					"color" : [ 1.0, 0.861448, 0.16921, 1.0 ]
				}
,
				"parentstyle" : "",
				"multi" : 0
			}
, 			{
				"name" : "master_style-3",
				"message" : 				{
					"bgfillcolor" : 					{
						"type" : "gradient",
						"color1" : [ 0.786675, 0.801885, 0.845022, 1.0 ],
						"color2" : [ 0.65098, 0.666667, 0.662745, 1.0 ],
						"color" : [ 0.290196, 0.309804, 0.301961, 1.0 ],
						"angle" : 270.0,
						"proportion" : 0.39,
						"autogradient" : 0.0
					}
,
					"textcolor_inverse" : [ 0.0, 0.0, 0.0, 1.0 ]
				}
,
				"umenu" : 				{
					"bgfillcolor" : 					{
						"type" : "gradient",
						"color1" : [ 0.786675, 0.801885, 0.845022, 1.0 ],
						"color2" : [ 0.65098, 0.666667, 0.662745, 1.0 ],
						"color" : [ 0.290196, 0.309804, 0.301961, 1.0 ],
						"angle" : 270.0,
						"proportion" : 0.39,
						"autogradient" : 0
					}

				}
,
				"attrui" : 				{
					"textcolor_inverse" : [ 0.0, 0.0, 0.0, 1.0 ],
					"bgcolor" : [ 0.786675, 0.801885, 0.845022, 1.0 ]
				}
,
				"newobj" : 				{
					"textcolor_inverse" : [ 0.0, 0.0, 0.0, 1.0 ],
					"accentcolor" : [ 0.65098, 0.666667, 0.662745, 1.0 ],
					"bgcolor" : [ 1.0, 1.0, 1.0, 1.0 ]
				}
,
				"multislider" : 				{
					"bgcolor" : [ 1.0, 1.0, 1.0, 1.0 ],
					"color" : [ 0.0, 0.0, 0.0, 1.0 ]
				}
,
				"slider" : 				{
					"bgcolor" : [ 1.0, 1.0, 1.0, 1.0 ],
					"elementcolor" : [ 0.65098, 0.666667, 0.662745, 1.0 ],
					"color" : [ 0.461105, 0.492646, 0.591878, 1.0 ]
				}
,
				"button" : 				{
					"bgcolor" : [ 0.682032, 0.698052, 0.748716, 1.0 ],
					"elementcolor" : [ 0.786675, 0.801885, 0.845022, 1.0 ],
					"color" : [ 1.0, 0.95051, 0.0, 1.0 ]
				}
,
				"ezdac~" : 				{
					"bgcolor" : [ 0.65098, 0.666667, 0.662745, 1.0 ],
					"elementcolor" : [ 0.862745, 0.870588, 0.878431, 1.0 ],
					"color" : [ 0.0, 0.0, 0.0, 1.0 ]
				}
,
				"function" : 				{
					"bgcolor" : [ 0.65098, 0.666667, 0.662745, 1.0 ],
					"color" : [ 0.0, 0.0, 0.0, 1.0 ]
				}
,
				"toggle" : 				{
					"bgcolor" : [ 0.682032, 0.698052, 0.748716, 1.0 ],
					"elementcolor" : [ 0.65098, 0.666667, 0.662745, 1.0 ],
					"color" : [ 0.0, 0.0, 0.0, 1.0 ]
				}
,
				"ezadc~" : 				{
					"bgcolor" : [ 0.65098, 0.666667, 0.662745, 1.0 ],
					"elementcolor" : [ 0.862745, 0.870588, 0.878431, 1.0 ],
					"color" : [ 0.0, 0.0, 0.0, 1.0 ]
				}
,
				"kslider" : 				{
					"elementcolor" : [ 0.65098, 0.666667, 0.662745, 1.0 ],
					"color" : [ 1.0, 1.0, 1.0, 1.0 ]
				}
,
				"gain~" : 				{
					"elementcolor" : [ 0.65098, 0.666667, 0.662745, 1.0 ],
					"color" : [ 1.0, 0.861448, 0.16921, 1.0 ]
				}
,
				"parentstyle" : "",
				"multi" : 0
			}
, 			{
				"name" : "newobjBlue-1",
				"default" : 				{
					"accentcolor" : [ 0.317647, 0.654902, 0.976471, 1.0 ]
				}
,
				"parentstyle" : "",
				"multi" : 0
			}
, 			{
				"name" : "newobjCyan-1",
				"default" : 				{
					"accentcolor" : [ 0.029546, 0.773327, 0.821113, 1.0 ]
				}
,
				"parentstyle" : "",
				"multi" : 0
			}
, 			{
				"name" : "newobjGreen-1",
				"default" : 				{
					"accentcolor" : [ 0.0, 0.533333, 0.168627, 1.0 ]
				}
,
				"parentstyle" : "",
				"multi" : 0
			}
, 			{
				"name" : "newobjYellow-1",
				"default" : 				{
					"fontsize" : [ 12.059008 ],
					"accentcolor" : [ 0.82517, 0.78181, 0.059545, 1.0 ]
				}
,
				"parentstyle" : "",
				"multi" : 0
			}
, 			{
				"name" : "numberGold-1",
				"default" : 				{
					"accentcolor" : [ 0.764706, 0.592157, 0.101961, 1.0 ]
				}
,
				"parentstyle" : "",
				"multi" : 0
			}
 ]
	}

}
