{
	"patcher" : 	{
		"fileversion" : 1,
		"appversion" : 		{
			"major" : 8,
			"minor" : 0,
			"revision" : 0,
			"architecture" : "x64",
			"modernui" : 1
		}
,
		"classnamespace" : "box",
		"rect" : [ 34.0, 79.0, 1003.0, 708.0 ],
		"bglocked" : 0,
		"openinpresentation" : 0,
		"default_fontsize" : 12.0,
		"default_fontface" : 0,
		"default_fontname" : "Arial",
		"gridonopen" : 1,
		"gridsize" : [ 15.0, 15.0 ],
		"gridsnaponopen" : 1,
		"objectsnaponopen" : 1,
		"statusbarvisible" : 2,
		"toolbarvisible" : 1,
		"lefttoolbarpinned" : 0,
		"toptoolbarpinned" : 0,
		"righttoolbarpinned" : 0,
		"bottomtoolbarpinned" : 0,
		"toolbars_unpinned_last_save" : 0,
		"tallnewobj" : 0,
		"boxanimatetime" : 200,
		"enablehscroll" : 1,
		"enablevscroll" : 1,
		"devicewidth" : 0.0,
		"description" : "",
		"digest" : "",
		"tags" : "",
		"style" : "",
		"subpatcher_template" : "",
		"showrootpatcherontab" : 0,
		"showontab" : 0,
		"boxes" : [ 			{
				"box" : 				{
					"fontname" : "Arial",
					"fontsize" : 12.0,
					"id" : "obj-21",
					"maxclass" : "message",
					"numinlets" : 2,
					"numoutlets" : 1,
					"outlettype" : [ "" ],
					"patching_rect" : [ 740.0, 291.0, 244.0, 22.0 ],
					"presentation_rect" : [ 740.0, 291.0, 244.0, 22.0 ],
					"text" : "window size 20 60 1023 768, window exec"
				}

			}
, 			{
				"box" : 				{
					"fontname" : "Arial",
					"fontsize" : 12.0,
					"id" : "obj-20",
					"maxclass" : "message",
					"numinlets" : 2,
					"numoutlets" : 1,
					"outlettype" : [ "" ],
					"patching_rect" : [ 740.0, 424.0, 182.0, 22.0 ],
					"presentation_rect" : [ 740.0, 424.0, 182.0, 22.0 ],
					"text" : "window size 20 60 922 728"
				}

			}
, 			{
				"box" : 				{
					"fontname" : "Arial",
					"fontsize" : 12.0,
					"id" : "obj-17",
					"maxclass" : "message",
					"numinlets" : 2,
					"numoutlets" : 1,
					"outlettype" : [ "" ],
					"patching_rect" : [ 765.0, 327.0, 94.0, 22.0 ],
					"presentation_rect" : [ 765.0, 327.0, 94.0, 22.0 ],
					"text" : "window getsize"
				}

			}
, 			{
				"box" : 				{
					"fontname" : "Arial",
					"fontsize" : 12.0,
					"id" : "obj-13",
					"maxclass" : "newobj",
					"numinlets" : 1,
					"numoutlets" : 2,
					"outlettype" : [ "", "" ],
					"patching_rect" : [ 740.0, 369.0, 71.0, 22.0 ],
					"presentation_rect" : [ 740.0, 369.0, 71.0, 22.0 ],
					"save" : [ "#N", "thispatcher", ";", "#Q", "end", ";" ],
					"text" : "thispatcher"
				}

			}
, 			{
				"box" : 				{
					"fontname" : "Arial",
					"fontsize" : 12.0,
					"id" : "obj-2",
					"maxclass" : "newobj",
					"numinlets" : 0,
					"numoutlets" : 0,
					"patcher" : 					{
						"fileversion" : 1,
						"appversion" : 						{
							"major" : 8,
							"minor" : 0,
							"revision" : 0,
							"architecture" : "x64",
							"modernui" : 1
						}
,
						"classnamespace" : "box",
						"rect" : [ 34.0, 105.0, 1003.0, 682.0 ],
						"bglocked" : 0,
						"openinpresentation" : 0,
						"default_fontsize" : 13.0,
						"default_fontface" : 0,
						"default_fontname" : "Arial",
						"gridonopen" : 1,
						"gridsize" : [ 5.0, 5.0 ],
						"gridsnaponopen" : 1,
						"objectsnaponopen" : 1,
						"statusbarvisible" : 2,
						"toolbarvisible" : 1,
						"lefttoolbarpinned" : 0,
						"toptoolbarpinned" : 0,
						"righttoolbarpinned" : 0,
						"bottomtoolbarpinned" : 0,
						"toolbars_unpinned_last_save" : 0,
						"tallnewobj" : 0,
						"boxanimatetime" : 200,
						"enablehscroll" : 1,
						"enablevscroll" : 1,
						"devicewidth" : 0.0,
						"description" : "",
						"digest" : "",
						"tags" : "",
						"style" : "",
						"subpatcher_template" : "",
						"showontab" : 1,
						"boxes" : [ 							{
								"box" : 								{
									"fontsize" : 14.0,
									"id" : "obj-4",
									"items" : [ "––Learn", "More––", ",", "Vizzie", "Data", "and", "Control", ",", "Interfacing", "Vizzie", "and", "MSP", ",", "Vizzie", "and", "OpenGL" ],
									"maxclass" : "umenu",
									"numinlets" : 1,
									"numoutlets" : 3,
									"outlettype" : [ "int", "", "" ],
									"parameter_enable" : 0,
									"patching_rect" : [ 770.0, 644.65435791015625, 221.0, 24.0 ],
									"presentation_rect" : [ 770.0, 644.65435791015625, 221.0, 24.0 ]
								}

							}
, 							{
								"box" : 								{
									"hidden" : 1,
									"id" : "obj-9",
									"maxclass" : "newobj",
									"numinlets" : 1,
									"numoutlets" : 0,
									"patcher" : 									{
										"fileversion" : 1,
										"appversion" : 										{
											"major" : 8,
											"minor" : 0,
											"revision" : 0,
											"architecture" : "x64",
											"modernui" : 1
										}
,
										"classnamespace" : "box",
										"rect" : [ 59.0, 104.0, 640.0, 480.0 ],
										"bglocked" : 0,
										"openinpresentation" : 0,
										"default_fontsize" : 12.0,
										"default_fontface" : 0,
										"default_fontname" : "Arial",
										"gridonopen" : 1,
										"gridsize" : [ 15.0, 15.0 ],
										"gridsnaponopen" : 1,
										"objectsnaponopen" : 1,
										"statusbarvisible" : 2,
										"toolbarvisible" : 1,
										"lefttoolbarpinned" : 0,
										"toptoolbarpinned" : 0,
										"righttoolbarpinned" : 0,
										"bottomtoolbarpinned" : 0,
										"toolbars_unpinned_last_save" : 0,
										"tallnewobj" : 0,
										"boxanimatetime" : 200,
										"enablehscroll" : 1,
										"enablevscroll" : 1,
										"devicewidth" : 0.0,
										"description" : "",
										"digest" : "",
										"tags" : "",
										"style" : "",
										"subpatcher_template" : "",
										"boxes" : [ 											{
												"box" : 												{
													"id" : "obj-7",
													"maxclass" : "message",
													"numinlets" : 2,
													"numoutlets" : 1,
													"outlettype" : [ "" ],
													"patching_rect" : [ 228.666671752929688, 287.0, 156.0, 22.0 ],
													"presentation_rect" : [ 228.666671752929688, 287.0, 156.0, 22.0 ],
													"text" : "load vizzie_opengl.maxhelp"
												}

											}
, 											{
												"box" : 												{
													"id" : "obj-6",
													"maxclass" : "message",
													"numinlets" : 2,
													"numoutlets" : 1,
													"outlettype" : [ "" ],
													"patching_rect" : [ 160.333328247070312, 228.0, 176.0, 22.0 ],
													"presentation_rect" : [ 160.333328247070312, 228.0, 176.0, 22.0 ],
													"text" : "load vizzie_Interfacing.maxhelp"
												}

											}
, 											{
												"box" : 												{
													"id" : "obj-5",
													"maxclass" : "newobj",
													"numinlets" : 4,
													"numoutlets" : 4,
													"outlettype" : [ "bang", "bang", "bang", "" ],
													"patching_rect" : [ 92.0, 112.0, 224.0, 22.0 ],
													"presentation_rect" : [ 92.0, 112.0, 224.0, 22.0 ],
													"text" : "select 1 2 3"
												}

											}
, 											{
												"box" : 												{
													"id" : "obj-4",
													"maxclass" : "message",
													"numinlets" : 2,
													"numoutlets" : 1,
													"outlettype" : [ "" ],
													"patching_rect" : [ 92.0, 166.0, 202.0, 22.0 ],
													"presentation_rect" : [ 92.0, 166.0, 202.0, 22.0 ],
													"text" : "load vizzie_module_control.maxhelp"
												}

											}
, 											{
												"box" : 												{
													"id" : "obj-2",
													"maxclass" : "newobj",
													"numinlets" : 1,
													"numoutlets" : 1,
													"outlettype" : [ "" ],
													"patching_rect" : [ 92.0, 406.0, 51.0, 22.0 ],
													"presentation_rect" : [ 92.0, 406.0, 51.0, 22.0 ],
													"text" : "pcontrol"
												}

											}
, 											{
												"box" : 												{
													"comment" : "",
													"id" : "obj-1",
													"index" : 1,
													"maxclass" : "inlet",
													"numinlets" : 0,
													"numoutlets" : 1,
													"outlettype" : [ "int" ],
													"patching_rect" : [ 92.0, 66.0, 30.0, 30.0 ],
													"presentation_rect" : [ 92.0, 66.0, 30.0, 30.0 ]
												}

											}
 ],
										"lines" : [ 											{
												"patchline" : 												{
													"destination" : [ "obj-5", 0 ],
													"source" : [ "obj-1", 0 ]
												}

											}
, 											{
												"patchline" : 												{
													"destination" : [ "obj-2", 0 ],
													"source" : [ "obj-4", 0 ]
												}

											}
, 											{
												"patchline" : 												{
													"destination" : [ "obj-4", 0 ],
													"source" : [ "obj-5", 0 ]
												}

											}
, 											{
												"patchline" : 												{
													"destination" : [ "obj-6", 0 ],
													"source" : [ "obj-5", 1 ]
												}

											}
, 											{
												"patchline" : 												{
													"destination" : [ "obj-7", 0 ],
													"source" : [ "obj-5", 2 ]
												}

											}
, 											{
												"patchline" : 												{
													"destination" : [ "obj-2", 0 ],
													"source" : [ "obj-6", 0 ]
												}

											}
, 											{
												"patchline" : 												{
													"destination" : [ "obj-2", 0 ],
													"source" : [ "obj-7", 0 ]
												}

											}
 ]
									}
,
									"patching_rect" : [ 770.0, 644.65435791015625, 104.0, 23.0 ],
									"presentation_rect" : [ 770.0, 644.65435791015625, 104.0, 23.0 ],
									"saved_object_attributes" : 									{
										"description" : "",
										"digest" : "",
										"globalpatchername" : "",
										"tags" : ""
									}
,
									"text" : "p Vizzie_Launch"
								}

							}
, 							{
								"box" : 								{
									"id" : "obj-12",
									"maxclass" : "multislider",
									"numinlets" : 1,
									"numoutlets" : 2,
									"outlettype" : [ "", "" ],
									"parameter_enable" : 0,
									"patching_rect" : [ 147.5, 436.0, 60.0, 60.0 ],
									"peakcolor" : [ 0.592157, 0.658824, 0.694118, 1.0 ],
									"presentation_rect" : [ 147.5, 436.0, 60.0, 60.0 ],
									"setminmax" : [ 0.0, 1.0 ],
									"setstyle" : 5,
									"slidercolor" : [ 0.180392, 0.552941, 0.662745, 1.0 ]
								}

							}
, 							{
								"box" : 								{
									"fontname" : "Arial",
									"fontsize" : 13.0,
									"id" : "obj-11",
									"maxclass" : "newobj",
									"numinlets" : 3,
									"numoutlets" : 1,
									"outlettype" : [ "" ],
									"patching_rect" : [ 147.5, 402.0, 63.0, 23.0 ],
									"presentation_rect" : [ 147.5, 402.0, 63.0, 23.0 ],
									"text" : "vz.wandr",
									"varname" : "vz.wandr"
								}

							}
, 							{
								"box" : 								{
									"bgcolor" : [ 0.0, 0.0, 0.0, 0.0 ],
									"bubble" : 1,
									"bubbleside" : 3,
									"fontname" : "Arial",
									"fontsize" : 13.0,
									"id" : "obj-8",
									"maxclass" : "comment",
									"numinlets" : 1,
									"numoutlets" : 0,
									"patching_rect" : [ 66.0, 265.5, 226.0, 25.0 ],
									"presentation_rect" : [ 66.0, 265.5, 226.0, 25.0 ],
									"text" : "0/1 messages to control modules"
								}

							}
, 							{
								"box" : 								{
									"fontname" : "Arial",
									"fontsize" : 24.0,
									"id" : "obj-7",
									"maxclass" : "message",
									"numinlets" : 2,
									"numoutlets" : 1,
									"outlettype" : [ "" ],
									"patching_rect" : [ 236.0, 347.0, 75.0, 35.0 ],
									"presentation_rect" : [ 236.0, 347.0, 75.0, 35.0 ],
									"text" : "off"
								}

							}
, 							{
								"box" : 								{
									"bgcolor" : [ 0.0, 0.0, 0.0, 0.0 ],
									"bubble" : 1,
									"bubbleside" : 3,
									"fontname" : "Arial",
									"fontsize" : 13.0,
									"id" : "obj-3",
									"maxclass" : "comment",
									"numinlets" : 1,
									"numoutlets" : 0,
									"patching_rect" : [ 66.0, 221.5, 226.0, 25.0 ],
									"presentation_rect" : [ 66.0, 221.5, 226.0, 25.0 ],
									"text" : "on/off messages for inlet control"
								}

							}
, 							{
								"box" : 								{
									"id" : "obj-2",
									"maxclass" : "multislider",
									"numinlets" : 1,
									"numoutlets" : 2,
									"outlettype" : [ "", "" ],
									"parameter_enable" : 0,
									"patching_rect" : [ 482.0, 362.0, 120.0, 120.0 ],
									"peakcolor" : [ 0.592157, 0.658824, 0.694118, 1.0 ],
									"presentation_rect" : [ 482.0, 362.0, 120.0, 120.0 ],
									"setminmax" : [ 0.0, 1.0 ],
									"setstyle" : 5,
									"slidercolor" : [ 0.180392, 0.552941, 0.662745, 1.0 ]
								}

							}
, 							{
								"box" : 								{
									"bgcolor" : [ 0.0, 0.0, 0.0, 0.0 ],
									"bubble" : 1,
									"bubbleside" : 0,
									"fontname" : "Arial",
									"fontsize" : 13.0,
									"id" : "obj-1",
									"maxclass" : "comment",
									"numinlets" : 1,
									"numoutlets" : 0,
									"patching_rect" : [ 362.0, 491.0, 226.0, 40.0 ],
									"presentation_rect" : [ 362.0, 491.0, 226.0, 40.0 ],
									"text" : "Dial and fader outputs"
								}

							}
, 							{
								"box" : 								{
									"id" : "obj-16",
									"maxclass" : "multislider",
									"numinlets" : 1,
									"numoutlets" : 2,
									"outlettype" : [ "", "" ],
									"parameter_enable" : 0,
									"patching_rect" : [ 353.0, 362.0, 120.0, 120.0 ],
									"peakcolor" : [ 0.592157, 0.658824, 0.694118, 1.0 ],
									"presentation_rect" : [ 353.0, 362.0, 120.0, 120.0 ],
									"setminmax" : [ 0.0, 1.0 ],
									"setstyle" : 5,
									"slidercolor" : [ 0.180392, 0.552941, 0.662745, 1.0 ]
								}

							}
, 							{
								"box" : 								{
									"bgmode" : 1,
									"border" : 0,
									"clickthrough" : 0,
									"enablehscroll" : 0,
									"enablevscroll" : 0,
									"id" : "obj-35",
									"lockeddragscroll" : 0,
									"maxclass" : "bpatcher",
									"name" : "vz.nanoctrlr.maxpat",
									"numinlets" : 0,
									"numoutlets" : 4,
									"offset" : [ 3.0, 3.0 ],
									"outlettype" : [ "", "", "", "" ],
									"patching_rect" : [ 296.0, 134.0, 110.0, 200.0 ],
									"presentation_rect" : [ 296.0, 134.0, 110.0, 200.0 ],
									"varname" : "vz.nanocontrolr",
									"viewvisibility" : 1
								}

							}
, 							{
								"box" : 								{
									"fontname" : "Arial",
									"fontsize" : 13.0,
									"id" : "obj-5",
									"maxclass" : "comment",
									"numinlets" : 1,
									"numoutlets" : 0,
									"patching_rect" : [ 10.0, 69.0, 583.0, 21.0 ],
									"presentation_rect" : [ 10.0, 69.0, 583.0, 21.0 ],
									"text" : "A Vizzie module/abstraction for using a Nanocontroller to generate Vizzie input data",
									"textcolor" : [ 0.200000002980232, 0.200000002980232, 0.200000002980232, 1.0 ],
									"varname" : "autohelp_top_digest"
								}

							}
, 							{
								"box" : 								{
									"bgcolor" : [ 0.0, 0.0, 0.0, 0.0 ],
									"bubble" : 1,
									"bubbleside" : 3,
									"fontname" : "Arial",
									"fontsize" : 13.0,
									"id" : "obj-115",
									"maxclass" : "comment",
									"numinlets" : 1,
									"numoutlets" : 0,
									"patching_rect" : [ 66.0, 164.0, 226.0, 25.0 ],
									"presentation_rect" : [ 66.0, 164.0, 226.0, 25.0 ],
									"text" : "Choose a Nanocontroller fader set"
								}

							}
, 							{
								"box" : 								{
									"fontname" : "Arial",
									"fontsize" : 48.0,
									"id" : "obj-6",
									"maxclass" : "comment",
									"numinlets" : 1,
									"numoutlets" : 0,
									"patching_rect" : [ 10.0, 10.0, 785.0, 60.0 ],
									"presentation_rect" : [ 10.0, 10.0, 785.0, 60.0 ],
									"text" : "NANOCONTROLR / vz.nanocontrolr",
									"textcolor" : [ 0.200000002980232, 0.200000002980232, 0.200000002980232, 1.0 ],
									"varname" : "autohelp_top_digest[1]"
								}

							}
 ],
						"lines" : [ 							{
								"patchline" : 								{
									"destination" : [ "obj-12", 0 ],
									"source" : [ "obj-11", 0 ]
								}

							}
, 							{
								"patchline" : 								{
									"destination" : [ "obj-11", 0 ],
									"midpoints" : [ 335.833333333333314, 392.5, 157.0, 392.5 ],
									"source" : [ "obj-35", 1 ]
								}

							}
, 							{
								"patchline" : 								{
									"destination" : [ "obj-16", 0 ],
									"midpoints" : [ 366.166666666666629, 347.5, 362.5, 347.5 ],
									"source" : [ "obj-35", 2 ]
								}

							}
, 							{
								"patchline" : 								{
									"destination" : [ "obj-2", 0 ],
									"midpoints" : [ 396.5, 347.5, 491.5, 347.5 ],
									"source" : [ "obj-35", 3 ]
								}

							}
, 							{
								"patchline" : 								{
									"destination" : [ "obj-7", 1 ],
									"source" : [ "obj-35", 0 ]
								}

							}
, 							{
								"patchline" : 								{
									"destination" : [ "obj-9", 0 ],
									"hidden" : 1,
									"source" : [ "obj-4", 0 ]
								}

							}
 ],
						"locked_bgcolor" : [ 0.88, 0.88, 0.88, 1.0 ],
						"bgfillcolor_type" : "gradient",
						"bgfillcolor_color1" : [ 0.454902, 0.462745, 0.482353, 1.0 ],
						"bgfillcolor_color2" : [ 0.290196, 0.309804, 0.301961, 1.0 ],
						"bgfillcolor_color" : [ 0.290196, 0.309804, 0.301961, 1.0 ]
					}
,
					"patching_rect" : [ 36.0, 27.0, 50.0, 22.0 ],
					"presentation_rect" : [ 36.0, 27.0, 50.0, 22.0 ],
					"saved_object_attributes" : 					{
						"description" : "",
						"digest" : "",
						"fontsize" : 13.0,
						"globalpatchername" : "",
						"locked_bgcolor" : [ 0.88, 0.88, 0.88, 1.0 ],
						"tags" : ""
					}
,
					"text" : "p basic",
					"varname" : "basic_tab"
				}

			}
 ],
		"lines" : [ 			{
				"patchline" : 				{
					"destination" : [ "obj-20", 1 ],
					"source" : [ "obj-13", 0 ]
				}

			}
, 			{
				"patchline" : 				{
					"destination" : [ "obj-13", 0 ],
					"source" : [ "obj-17", 0 ]
				}

			}
, 			{
				"patchline" : 				{
					"destination" : [ "obj-13", 0 ],
					"source" : [ "obj-21", 0 ]
				}

			}
 ],
		"parameters" : 		{
			"obj-2::obj-11::obj-53" : [ "pictctrl[364]", "pictctrl[1]", 0 ],
			"obj-2::obj-35::obj-84" : [ "pictctrl[4]", "pictctrl[1]", 0 ],
			"obj-2::obj-11::obj-44" : [ "textbutton[23]", "textbutton[1]", 0 ],
			"obj-2::obj-35::obj-3" : [ "pen size[1]", "pen size", 0 ],
			"obj-2::obj-35::obj-2" : [ "live.slider[1]", "live.slider", 0 ],
			"obj-2::obj-35::obj-81" : [ "pictctrl[1]", "pictctrl[1]", 0 ],
			"obj-2::obj-11::obj-49" : [ "pictctrl[369]", "pictctrl[1]", 0 ],
			"obj-2::obj-35::obj-7" : [ "live.toggle[3]", "live.toggle", 0 ],
			"obj-2::obj-11::obj-64" : [ "step size", "step size", 0 ],
			"obj-2::obj-35::obj-9" : [ "live.toggle[2]", "live.toggle", 0 ],
			"obj-2::obj-11::obj-48" : [ "FreqMode[26]", "FreqMode", 0 ],
			"obj-2::obj-11::obj-43" : [ "pictctrl[367]", "pictctrl[1]", 0 ],
			"obj-2::obj-35::obj-83" : [ "pictctrl[3]", "pictctrl[1]", 0 ],
			"obj-2::obj-11::obj-65" : [ "speed[10]", "speed", 0 ],
			"obj-2::obj-35::obj-20" : [ "umenu", "umenu", 0 ],
			"obj-2::obj-35::obj-82" : [ "pictctrl[2]", "pictctrl[1]", 0 ],
			"obj-2::obj-11::obj-50" : [ "pictctrl[368]", "pictctrl[1]", 0 ],
			"parameterbanks" : 			{

			}

		}
,
		"dependency_cache" : [ 			{
				"name" : "vz.nanoctrlr.maxpat",
				"bootpath" : "C74:/packages/vizzie/patchers",
				"type" : "JSON",
				"implicit" : 1
			}
, 			{
				"name" : "ctl-data-button.png",
				"bootpath" : "C74:/packages/vizzie/patchers/legacy",
				"type" : "PNG",
				"implicit" : 1
			}
, 			{
				"name" : "vz.wandr.maxpat",
				"bootpath" : "C74:/packages/vizzie/patchers",
				"type" : "JSON",
				"implicit" : 1
			}
, 			{
				"name" : "data-handler.maxpat",
				"bootpath" : "C74:/packages/vizzie/patchers",
				"type" : "JSON",
				"implicit" : 1
			}
, 			{
				"name" : "vzgl-object.maxpat",
				"bootpath" : "C74:/packages/vizzie/patchers",
				"type" : "JSON",
				"implicit" : 1
			}
, 			{
				"name" : "vizzie-global.js",
				"bootpath" : "C74:/packages/vizzie/code",
				"type" : "TEXT",
				"implicit" : 1
			}
, 			{
				"name" : "data-handler-L.maxpat",
				"bootpath" : "C74:/packages/vizzie/patchers",
				"type" : "JSON",
				"implicit" : 1
			}
 ],
		"autosave" : 0,
		"locked_bgcolor" : [ 0.0, 0.0, 0.0, 0.0 ]
	}

}
