{
	"patcher" : 	{
		"fileversion" : 1,
		"appversion" : 		{
			"major" : 7,
			"minor" : 3,
			"revision" : 5,
			"architecture" : "x86",
			"modernui" : 1
		}
,
		"rect" : [ 180.0, 45.0, 989.0, 521.0 ],
		"bglocked" : 0,
		"openinpresentation" : 0,
		"default_fontsize" : 12.0,
		"default_fontface" : 0,
		"default_fontname" : "Arial",
		"gridonopen" : 2,
		"gridsize" : [ 15.0, 15.0 ],
		"gridsnaponopen" : 1,
		"objectsnaponopen" : 1,
		"statusbarvisible" : 2,
		"toolbarvisible" : 0,
		"lefttoolbarpinned" : 0,
		"toptoolbarpinned" : 0,
		"righttoolbarpinned" : 2,
		"bottomtoolbarpinned" : 2,
		"toolbars_unpinned_last_save" : 12,
		"tallnewobj" : 0,
		"boxanimatetime" : 200,
		"enablehscroll" : 1,
		"enablevscroll" : 1,
		"devicewidth" : 0.0,
		"description" : "",
		"digest" : "",
		"tags" : "",
		"style" : "minimal",
		"subpatcher_template" : "kk_sp_empty",
		"boxes" : [ 			{
				"box" : 				{
					"bgmode" : 0,
					"border" : 1,
					"clickthrough" : 0,
					"enablehscroll" : 0,
					"enablevscroll" : 0,
					"id" : "obj-10",
					"lockeddragscroll" : 0,
					"maxclass" : "bpatcher",
					"name" : "vs_preview.maxpat",
					"numinlets" : 2,
					"numoutlets" : 1,
					"offset" : [ 0.0, 0.0 ],
					"outlettype" : [ "jit_gl_texture" ],
					"patching_rect" : [ 618.0, 371.0, 128.0, 115.0 ],
					"varname" : "vs_preview[1]",
					"viewvisibility" : 1
				}

			}
, 			{
				"box" : 				{
					"bgmode" : 1,
					"border" : 1,
					"clickthrough" : 0,
					"enablehscroll" : 0,
					"enablevscroll" : 0,
					"id" : "obj-20",
					"lockeddragscroll" : 0,
					"maxclass" : "bpatcher",
					"name" : "vs_wfg_2.maxpat",
					"numinlets" : 4,
					"numoutlets" : 2,
					"offset" : [ 0.0, 0.0 ],
					"outlettype" : [ "jit_gl_texture", "jit_gl_texture" ],
					"patching_rect" : [ 308.0, 45.0, 302.0, 91.0 ],
					"varname" : "vs_wfg_2[1]",
					"viewvisibility" : 1
				}

			}
, 			{
				"box" : 				{
					"hidden" : 1,
					"id" : "obj-11",
					"maxclass" : "newobj",
					"numinlets" : 1,
					"numoutlets" : 1,
					"outlettype" : [ "bang" ],
					"patching_rect" : [ 247.0, 7.0, 60.0, 22.0 ],
					"style" : "",
					"text" : "loadbang"
				}

			}
, 			{
				"box" : 				{
					"hidden" : 1,
					"id" : "obj-9",
					"maxclass" : "message",
					"numinlets" : 2,
					"numoutlets" : 1,
					"outlettype" : [ "" ],
					"patching_rect" : [ 553.0, 7.0, 41.0, 22.0 ],
					"style" : "",
					"text" : "freq 0"
				}

			}
, 			{
				"box" : 				{
					"hidden" : 1,
					"id" : "obj-8",
					"maxclass" : "message",
					"numinlets" : 2,
					"numoutlets" : 1,
					"outlettype" : [ "" ],
					"patching_rect" : [ 385.5, 181.0, 37.0, 22.0 ],
					"style" : "",
					"text" : "am 1"
				}

			}
, 			{
				"box" : 				{
					"hidden" : 1,
					"id" : "obj-6",
					"maxclass" : "message",
					"numinlets" : 2,
					"numoutlets" : 1,
					"outlettype" : [ "" ],
					"patching_rect" : [ 247.0, 144.0, 67.0, 22.0 ],
					"style" : "",
					"text" : "angle 3.14"
				}

			}
, 			{
				"box" : 				{
					"hidden" : 1,
					"id" : "obj-4",
					"maxclass" : "message",
					"numinlets" : 2,
					"numoutlets" : 1,
					"outlettype" : [ "" ],
					"patching_rect" : [ 517.0, 223.0, 37.0, 22.0 ],
					"style" : "",
					"text" : "fm 1."
				}

			}
, 			{
				"box" : 				{
					"bgmode" : 1,
					"border" : 1,
					"clickthrough" : 0,
					"enablehscroll" : 0,
					"enablevscroll" : 0,
					"id" : "obj-18",
					"lockeddragscroll" : 0,
					"maxclass" : "bpatcher",
					"name" : "vs_wfg_2.maxpat",
					"numinlets" : 4,
					"numoutlets" : 2,
					"offset" : [ 0.0, 0.0 ],
					"outlettype" : [ "jit_gl_texture", "jit_gl_texture" ],
					"patching_rect" : [ 272.0, 261.0, 302.0, 91.0 ],
					"varname" : "vs_wfg_2",
					"viewvisibility" : 1
				}

			}
, 			{
				"box" : 				{
					"bgmode" : 0,
					"border" : 1,
					"clickthrough" : 0,
					"enablehscroll" : 0,
					"enablevscroll" : 0,
					"id" : "obj-21",
					"lockeddragscroll" : 0,
					"maxclass" : "bpatcher",
					"name" : "vs_vca.maxpat",
					"numinlets" : 3,
					"numoutlets" : 1,
					"offset" : [ 0.0, 0.0 ],
					"outlettype" : [ "jit_gl_texture" ],
					"patching_rect" : [ 272.0, 181.0, 91.0, 64.0 ],
					"varname" : "vs_vca",
					"viewvisibility" : 1
				}

			}
, 			{
				"box" : 				{
					"bgmode" : 1,
					"border" : 1,
					"clickthrough" : 0,
					"enablehscroll" : 0,
					"enablevscroll" : 0,
					"id" : "obj-22",
					"lockeddragscroll" : 0,
					"maxclass" : "bpatcher",
					"name" : "vs_offset+rot.maxpat",
					"numinlets" : 2,
					"numoutlets" : 1,
					"offset" : [ 0.0, 0.0 ],
					"outlettype" : [ "" ],
					"patching_rect" : [ 49.0, 181.0, 201.0, 64.0 ],
					"varname" : "vs_offset+rot",
					"viewvisibility" : 1
				}

			}
, 			{
				"box" : 				{
					"bgmode" : 0,
					"border" : 1,
					"clickthrough" : 0,
					"enablehscroll" : 0,
					"enablevscroll" : 0,
					"id" : "obj-2",
					"lockeddragscroll" : 0,
					"maxclass" : "bpatcher",
					"name" : "vs_preview.maxpat",
					"numinlets" : 2,
					"numoutlets" : 1,
					"offset" : [ 0.0, 0.0 ],
					"outlettype" : [ "jit_gl_texture" ],
					"patching_rect" : [ 272.0, 371.0, 128.0, 115.0 ],
					"varname" : "vs_preview",
					"viewvisibility" : 1
				}

			}
, 			{
				"box" : 				{
					"background" : 1,
					"fontsize" : 13.424746,
					"id" : "obj-7",
					"linecount" : 3,
					"maxclass" : "comment",
					"numinlets" : 1,
					"numoutlets" : 0,
					"patching_rect" : [ 622.0, 65.0, 340.0, 51.0 ],
					"style" : "",
					"text" : "VCA was presented in the lfo_help patch. In this case I'm letting the feedback signal modulate my wfg_2 depending on an lfo."
				}

			}
 ],
		"lines" : [ 			{
				"patchline" : 				{
					"destination" : [ "obj-4", 0 ],
					"hidden" : 1,
					"order" : 1,
					"source" : [ "obj-11", 0 ]
				}

			}
, 			{
				"patchline" : 				{
					"destination" : [ "obj-6", 0 ],
					"hidden" : 1,
					"order" : 3,
					"source" : [ "obj-11", 0 ]
				}

			}
, 			{
				"patchline" : 				{
					"destination" : [ "obj-8", 0 ],
					"hidden" : 1,
					"order" : 2,
					"source" : [ "obj-11", 0 ]
				}

			}
, 			{
				"patchline" : 				{
					"destination" : [ "obj-9", 0 ],
					"hidden" : 1,
					"order" : 0,
					"source" : [ "obj-11", 0 ]
				}

			}
, 			{
				"patchline" : 				{
					"destination" : [ "obj-2", 0 ],
					"order" : 1,
					"source" : [ "obj-18", 0 ]
				}

			}
, 			{
				"patchline" : 				{
					"destination" : [ "obj-22", 0 ],
					"midpoints" : [ 281.5, 358.0, 36.0, 358.0, 36.0, 175.0, 58.5, 175.0 ],
					"order" : 0,
					"source" : [ "obj-18", 0 ]
				}

			}
, 			{
				"patchline" : 				{
					"destination" : [ "obj-10", 0 ],
					"midpoints" : [ 317.5, 160.0, 627.5, 160.0 ],
					"order" : 1,
					"source" : [ "obj-20", 0 ]
				}

			}
, 			{
				"patchline" : 				{
					"destination" : [ "obj-21", 1 ],
					"order" : 0,
					"source" : [ "obj-20", 0 ]
				}

			}
, 			{
				"patchline" : 				{
					"destination" : [ "obj-18", 0 ],
					"source" : [ "obj-21", 0 ]
				}

			}
, 			{
				"patchline" : 				{
					"destination" : [ "obj-21", 0 ],
					"midpoints" : [ 58.5, 257.0, 256.0, 257.0, 256.0, 178.0, 281.5, 178.0 ],
					"source" : [ "obj-22", 0 ]
				}

			}
, 			{
				"patchline" : 				{
					"destination" : [ "obj-18", 3 ],
					"hidden" : 1,
					"source" : [ "obj-4", 0 ]
				}

			}
, 			{
				"patchline" : 				{
					"destination" : [ "obj-22", 1 ],
					"hidden" : 1,
					"source" : [ "obj-6", 0 ]
				}

			}
, 			{
				"patchline" : 				{
					"destination" : [ "obj-21", 2 ],
					"hidden" : 1,
					"source" : [ "obj-8", 0 ]
				}

			}
, 			{
				"patchline" : 				{
					"destination" : [ "obj-20", 3 ],
					"hidden" : 1,
					"source" : [ "obj-9", 0 ]
				}

			}
 ],
		"parameters" : 		{
			"obj-18::obj-24" : [ "pw", "pw", 0 ],
			"obj-20::obj-12" : [ "toggle[6]", "toggle[1]", 0 ],
			"obj-18::obj-27" : [ "waveform", "waveform", 0 ],
			"obj-20::obj-27" : [ "waveform[1]", "waveform", 0 ],
			"obj-20::obj-25" : [ "fm[1]", "fm", 0 ],
			"obj-18::obj-23" : [ "pwm", "pwm", 0 ],
			"obj-20::obj-26" : [ "freq[5]", "freq", 0 ],
			"obj-2::obj-37" : [ "preview_size", "umenu", 0 ],
			"obj-22::obj-96" : [ "live.menu[7]", "live.menu", 0 ],
			"obj-18::obj-139" : [ "live.tab[4]", "live.tab", 0 ],
			"obj-18::obj-12" : [ "toggle[8]", "toggle[1]", 0 ],
			"obj-22::obj-67" : [ "angle", "angle", 0 ],
			"obj-20::obj-130" : [ "live.dial[5]", "time", 0 ],
			"obj-18::obj-130" : [ "live.dial[2]", "time", 0 ],
			"obj-20::obj-23" : [ "pwm[1]", "pwm", 0 ],
			"obj-20::obj-24" : [ "pw[1]", "pw", 0 ],
			"obj-22::obj-6" : [ "live.dial[7]", "x", 0 ],
			"obj-20::obj-139" : [ "live.tab[3]", "live.tab", 0 ],
			"obj-22::obj-35" : [ "zoom", "zoom", 0 ],
			"obj-18::obj-13" : [ "scale_freq[1]", "scale_freq", 0 ],
			"obj-22::obj-8" : [ "live.dial[6]", "y", 0 ],
			"obj-22::obj-19" : [ "live.dial[3]", "angle", 0 ],
			"obj-18::obj-26" : [ "freq", "freq", 0 ],
			"obj-20::obj-13" : [ "scale_freq[2]", "scale_freq", 0 ],
			"obj-21::obj-21" : [ "freq[4]", "am", 0 ],
			"obj-21::obj-4" : [ "freq[3]", "bias", 0 ],
			"obj-18::obj-25" : [ "fm", "fm", 0 ],
			"obj-20::obj-10" : [ "wfg2_pm[1]", "pm", 0 ],
			"obj-18::obj-6" : [ "scale_freq_fm[1]", "scale_freq_fm", 0 ],
			"obj-20::obj-6" : [ "scale_freq_fm[2]", "scale_freq_fm", 0 ],
			"obj-22::obj-11" : [ "scale_freq_fm", "scale_freq_fm", 0 ],
			"obj-10::obj-37" : [ "preview_size[1]", "umenu", 0 ],
			"obj-22::obj-14" : [ "scale_freq", "scale_freq", 0 ],
			"obj-18::obj-10" : [ "wfg2_pm", "pm", 0 ]
		}
,
		"dependency_cache" : [ 			{
				"name" : "vs_preview.maxpat",
				"bootpath" : "~/Documents/Max 7/Packages/Vsynth/patchers",
				"patcherrelativepath" : "..",
				"type" : "JSON",
				"implicit" : 1
			}
, 			{
				"name" : "vs_presize.js",
				"bootpath" : "~/Documents/Max 7/Packages/Vsynth/javascript",
				"patcherrelativepath" : "../../javascript",
				"type" : "TEXT",
				"implicit" : 1
			}
, 			{
				"name" : "vs_offset+rot.maxpat",
				"bootpath" : "~/Documents/Max 7/Packages/Vsynth/patchers",
				"patcherrelativepath" : "..",
				"type" : "JSON",
				"implicit" : 1
			}
, 			{
				"name" : "vs_vca.maxpat",
				"bootpath" : "~/Documents/Max 7/Packages/Vsynth/patchers",
				"patcherrelativepath" : "..",
				"type" : "JSON",
				"implicit" : 1
			}
, 			{
				"name" : "vs_wfg_2.maxpat",
				"bootpath" : "~/Documents/Max 7/Packages/Vsynth/patchers",
				"patcherrelativepath" : "..",
				"type" : "JSON",
				"implicit" : 1
			}
, 			{
				"name" : "timediv.txt",
				"bootpath" : "~/Documents/Max 7/Packages/Vsynth/patchers",
				"patcherrelativepath" : "..",
				"type" : "TEXT",
				"implicit" : 1
			}
, 			{
				"name" : "sine.svg",
				"bootpath" : "C74:/media/max/picts/m4l-picts",
				"type" : "svg ",
				"implicit" : 1
			}
, 			{
				"name" : "saw.svg",
				"bootpath" : "C74:/media/max/picts/m4l-picts",
				"type" : "svg ",
				"implicit" : 1
			}
, 			{
				"name" : "down.svg",
				"bootpath" : "C74:/media/max/picts/m4l-picts",
				"type" : "svg ",
				"implicit" : 1
			}
, 			{
				"name" : "up.svg",
				"bootpath" : "C74:/media/max/picts/m4l-picts",
				"type" : "svg ",
				"implicit" : 1
			}
, 			{
				"name" : "square.svg",
				"bootpath" : "C74:/media/max/picts/m4l-picts",
				"type" : "svg ",
				"implicit" : 1
			}
, 			{
				"name" : "noise2.svg",
				"bootpath" : "~/Documents/Max 7/Packages/Vsynth/media",
				"patcherrelativepath" : "../../media",
				"type" : "svg ",
				"implicit" : 1
			}
 ],
		"autosave" : 0,
		"styles" : [ 			{
				"name" : "minimal",
				"default" : 				{
					"color" : [ 0.345098, 0.513725, 0.572549, 0.78 ],
					"selectioncolor" : [ 0.862745, 0.741176, 0.137255, 0.7 ],
					"textcolor_inverse" : [ 0.0, 0.0, 0.0, 1.0 ],
					"patchlinecolor" : [ 0.65, 0.65, 0.65, 0.9 ],
					"bgcolor" : [ 0.878431, 0.878431, 0.858824, 1.0 ],
					"bgfillcolor" : 					{
						"type" : "color",
						"color" : [ 0.65098, 0.65098, 0.65098, 1.0 ],
						"color1" : [ 0.878431, 0.878431, 0.858824, 1.0 ],
						"color2" : [ 0.290196, 0.309804, 0.301961, 1.0 ],
						"angle" : 270.0,
						"proportion" : 0.99,
						"autogradient" : 0
					}
,
					"accentcolor" : [ 0.32549, 0.345098, 0.372549, 1.0 ],
					"elementcolor" : [ 0.32549, 0.345098, 0.372549, 0.44 ]
				}
,
				"parentstyle" : "",
				"multi" : 0
			}
 ],
		"toolbaradditions" : [ "browsegenjit", "browsegendsp" ],
		"toolbarexclusions" : [ "browsecollections", "browser_plugin", "packagemanager", "calendar", "other", "number", "toggle", "comment" ],
		"default_bgcolor" : [ 0.878431, 0.878431, 0.858824, 1.0 ],
		"color" : [ 0.345098, 0.513725, 0.572549, 0.78 ],
		"elementcolor" : [ 0.32549, 0.345098, 0.372549, 0.44 ],
		"accentcolor" : [ 0.32549, 0.345098, 0.372549, 1.0 ],
		"selectioncolor" : [ 0.862745, 0.741176, 0.137255, 0.7 ],
		"textcolor_inverse" : [ 0.0, 0.0, 0.0, 1.0 ],
		"bgfillcolor_type" : "color",
		"bgfillcolor_color1" : [ 0.878431, 0.878431, 0.858824, 1.0 ],
		"bgfillcolor_color2" : [ 0.290196, 0.309804, 0.301961, 1.0 ],
		"bgfillcolor_color" : [ 0.65098, 0.65098, 0.65098, 1.0 ],
		"bgfillcolor_angle" : 270.0,
		"bgfillcolor_proportion" : 0.99
	}

}
